<svg width="22" height="22" viewBox="0 0 22 22" fill="none" xmlns="http://www.w3.org/2000/svg">
<g clip-path="url(#clip0_105:11)">
<path d="M5.5 6.5H20.5001L18.0001 15H8.00009L5.5 6.5Z" fill="#AAAAAA"/>
<path fill-rule="evenodd" clip-rule="evenodd" d="M8.96977 18.48C8.5378 18.48 8.12352 18.6654 7.81806 18.9955C7.51261 19.3256 7.34101 19.7732 7.34101 20.24C7.34101 20.7068 7.51261 21.1544 7.81806 21.4845C8.12352 21.8146 8.5378 22 8.96977 22C9.40174 22 9.81602 21.8146 10.1215 21.4845C10.4269 21.1544 10.5985 20.7068 10.5985 20.24C10.5985 19.7732 10.4269 19.3256 10.1215 18.9955C9.81602 18.6654 9.40174 18.48 8.96977 18.48ZM17.1136 18.48C16.6816 18.48 16.2673 18.6654 15.9619 18.9955C15.6564 19.3256 15.4848 19.7732 15.4848 20.24C15.4848 20.7068 15.6564 21.1544 15.9619 21.4845C16.2673 21.8146 16.6816 22 17.1136 22C17.5455 22 17.9598 21.8146 18.2653 21.4845C18.5707 21.1544 18.7423 20.7068 18.7423 20.24C18.7423 19.7732 18.5707 19.3256 18.2653 18.9955C17.9598 18.6654 17.5455 18.48 17.1136 18.48Z" 
fill="#3E3E3E"/>
<path fill-rule="evenodd" clip-rule="evenodd" d="M0.825978 8.80061e-05C0.718063 -0.00156115 0.610921 0.0199823 0.510778 0.0634662C0.410635 0.10695 0.319489 0.171507 0.242637 0.253386C0.165784 0.335265 0.104757 0.432832 0.0631038 0.540418C0.0214501 0.648004 0 0.763463 0 0.880085C0 0.996706 0.0214501 1.11216 0.0631038 1.21975C0.104757 1.32734 0.165784 1.4249 0.242637 1.50678C0.319489 1.58866 0.410635 1.65322 0.510778 1.6967C0.610921 1.74019 0.718063 1.76173 0.825978 1.76008H2.35612C2.54009 1.76008 2.6936 1.88457 2.74581 2.07633L6.21647 14.826C6.52107 15.9451 7.47897 16.72 8.5594 16.72H17.4985C18.5966 16.72 19.5662 15.9181 19.8557 14.7744L21.9712 6.39209C22.0042 6.26151 22.0089 6.12447 21.9849 5.99161C21.9609 5.85875 21.9089 5.73366 21.8329 5.62607C21.7569 5.51848 21.6589 5.43129 21.5466 5.37128C21.4343 5.31127 21.3107 5.28005 21.1855 5.28007H5.3162L4.30936 1.57961H4.30777C4.05377 0.646739 3.25527 8.80061e-05 2.35612 8.80061e-05H0.825978ZM20.5 6.5L18 15H13H8L5.70263 6.67962L20.5 6.5Z" 
fill="#3E3E3E"/>
</g>
<defs>
<clipPath id="clip0_105:11">
<rect width="22" height="22" fill="white"/>
</clipPath>
</defs>
</svg>
