<svg xmlns="http://www.w3.org/2000/svg" viewBox="0 0 30 30">
  <path d="M6 4C4.895 4 4 4.895 4 6L4 10L1 14C1 15.105 1.895 16 3 16C4.105 16 5 15.105 5 14L7 10L10 10L9 14C9 15.105 9.895 16 11 16C12.105 16 13 15.105 13 14L13 10L17 10L17 14C17 15.105 17.895 16 19 16C20.105 16 21 15.105 21 14L20 10L23 10L25 14C25 15.105 25.895 16 27 16C28.105 16 29 15.105 29 14L26 10L26 6C26 4.895 25.105 4 24 4L6 4 z M 7 6C7.552 6 8 6.448 8 7C8 7.552 7.552 8 7 8C6.448 8 6 7.552 6 7C6 6.448 6.448 6 7 6 z M 11 6C11.552 6 12 6.448 12 7C12 7.552 11.552 8 11 8C10.448 8 10 7.552 10 7C10 6.448 10.448 6 11 6 z M 4 18L4 24C4 25.105 4.895 26 6 26L24 26C25.105 26 26 25.105 26 24L26 18L24 18L24 24L6 24L6 18L4 18 z" 
  fill="#5B5B5B" />
</svg>