<svg width="122" height="108" viewBox="0 0 122 108" fill="none" xmlns="http://www.w3.org/2000/svg">
<path d="M96.0001 44.9999V27.9999M96.0001 44.9999V80.4999M96.0001 44.9999L99.4682 48.4681M40.0001 1.99992C40.0001 1.99992 42.5001 20.4999 60.0001 20.4999C77.5001 20.4999 80.0001 1.99992 80.0001 1.99992M40.0001 1.99992H41.0001M40.0001 1.99992H31.0002C28.9509 2.2321 28.0604 2.66267 27 4L3.00008 35.9999L18.5001 51.5322L22.0809 47.9514M80.0001 1.99992H79.0001M80.0001 1.99992H89.0002C90.7265 2.04041 91.6094 2.48473 93.0002 4L115.834 32.1027M96.0001 80.4999V83.9999M96.0001 80.4999C84.8992 80.4799 74.0001 85.9999 71.0001 94.4999M48.0001 107C45.2664 107 41.0001 107 41.0001 107L27.0001 85.5333M48.0001 107C48.3906 107 49.0001 107 49.0001 107M48.0001 107C47.9972 106.661 47.9931 106.328 48.0001 106M74.0001 107H81.0001L94.8001 85.9999M74.0001 107H73.0001M74.0001 107C74.0001 106.66 74.0081 106.327 74.0001 106M49.0001 107H61.0001H73.0001M49.0001 107C49.0001 107 47.5001 91.4999 61.0001 91.4999C74.5001 91.4999 73.0001 107 73.0001 107M48.8397 99.4999C43.5119 89.6546 38.3307 86.4894 26.3397 84.9999M26.0001 83.9999C38.8545 85.5252 44.0409 88.4935 49.0001 97.9999M26.0001 83.9999L27.0001 85.5333M26.0001 83.9999V44.0322M26.0001 80.4999C41.2407 81.8325 46.2934 86.0941 51.5001 94.4999M95.7424 84.9999C86.1416 85.8933 76.2424 89.9999 73.2424 99.4999M96.0001 83.9999C84.3992 85.4999 76.0001 89.4999 73.0001 97.9999M96.0001 83.9999L94.8001 85.9999M6.00008 31.8888L22.0809 47.9514M74.0001 106C73.7266 94.7766 68.7736 90.9999 61.0001 90.9999C53.2466 90.9999 48.2184 95.6965 48.0001 106M74.0001 106H61.0001H48.0001M95.0001 27.9999L94.9397 45.4999M94.8001 85.9999L94.9397 45.4999M27.0001 85.5333V43.9999M99.4666 48.4664L99.4682 48.4681M26.0001 44.0322V43.9999V27.9999H27.0001V43.9999M26.0001 44.0322L22.0809 47.9514M94.9397 45.4999L103 53.5603L120.56 35.9999L93 2.5C91.7227 1.16762 90.7837 1.07421 88.4113 0.999939H80.0001H39.5001H31.5C29.0196 1.01243 27.8913 1.40148 26.5 3L1.5 36L18.5001 52.5L27.0001 43.9999M36 2.5C36 9.5 41.5001 23.9999 60.0001 23.9999C78.5001 23.9999 83.5 9.5 83.5 2.5M41.0001 1.99992C41.0001 1.99992 44.0001 19.4999 60.0001 19.4999C76.0001 19.4999 79.0001 1.99992 79.0001 1.99992M41.0001 1.99992H79.0001M115.834 32.1027L119 35.9999L103 51.9999L99.4682 48.4681M115.834 32.1027L99.4682 48.4681M59 100C58 99 58.2376 96.8895 59 96C59.2352 95.7256 59.5557 95.5264 59.9185 95.4003M59 100L59.6989 96.5M59 100C59.7584 100.758 60.2292 98.9284 60.6306 98M59.9185 95.4003C60.9278 95.0495 62.2644 95.2644 63 96C63.132 96.132 63.203 96.2553 63.2257 96.3698M59.9185 95.4003L59.6989 96.5M63.2257 96.3698C63.3749 97.1233 61.434 97.5 61 97.5C60.8792 97.5 60.7584 97.7043 60.6306 98M63.2257 96.3698L59.6989 96.5M59.6989 96.5L60.6306 98" 
stroke="rgb(241 104 4)" stroke-width="1.3"/>
</svg>
