<svg width="109" height="97" viewBox="0 0 109 97" fill="none" xmlns="http://www.w3.org/2000/svg">
<g clip-path="url(#clip0_644_41)">
<path fill-rule="evenodd" clip-rule="evenodd" d="M43.4438 96.0849H54.4726H65.5013C65.5546 92.947 64.918 82.816 54.4726 82.816C44.0273 82.816 43.3905 92.947 43.4438 96.0849ZM52.6415 90.5943C51.726 89.6793 51.9435 87.748 52.6415 86.9341C52.8569 86.6829 53.1503 86.5007 53.4824 86.3853C54.4064 86.0642 55.6301 86.2608 56.3035 86.9341C56.4244 87.0548 56.4894 87.1676 56.5102 87.2725C56.6135 87.794 55.6219 88.1183 54.9608 88.2453L54.1343 88.7642C53.7669 89.6138 53.3358 91.288 52.6415 90.5943Z" fill="white"/>
<path d="M86.5153 40.2642L89.6889 43.4362L89.6904 43.4378L104.673 28.462L83.7689 2.74534C82.4956 1.35872 81.6873 0.952128 80.1069 0.915076H71.8672C71.8672 0.915076 71.8452 1.0783 71.7902 1.3727H75.0714C75.0714 7.77836 70.494 21.0472 53.5571 21.0472C36.6203 21.0472 31.5849 7.77836 31.5849 1.3727H35.3241C35.2691 1.0783 35.247 0.915076 35.247 0.915076H27.0076C25.1314 1.12754 24.3162 1.52155 23.3454 2.74534L4.16348 28.3097L18.8419 42.9651L22.43 39.3786V39.3491V24.7075H23.3455V39.3491V72.8352V76.0659V76.9453V77.3559L36.1625 97H42.5711L42.5701 96.9003L42.5701 96.8974C42.5678 96.6229 42.5654 96.3521 42.5711 96.0849C42.7709 86.6562 47.3743 82.3585 54.4726 82.3585C61.5893 82.3585 66.1238 85.8145 66.3742 96.0849C66.3815 96.3841 66.3742 96.6889 66.3742 97H72.7827L85.4167 77.783L85.4195 76.9572L85.4225 76.1037L85.434 72.7671C85.794 72.755 86.1545 72.7494 86.5153 72.75V41.692V40.2642Z" fill="white"/>
<path d="M15.5637 46.2418L18.8419 42.9651L4.16348 28.3097L1.37333 32.0283L15.5637 46.2418Z" fill="white"/>
<path d="M36.2561 1.3727C36.8392 3.98835 40.3894 16.9292 53.5571 16.9292C66.7248 16.9292 70.275 3.98835 70.8581 1.3727H36.2561Z" fill="white"/>
<path d="M35.3241 1.3727C35.8289 4.07647 39.1089 17.8443 53.5571 17.8443C68.0053 17.8443 71.2853 4.07647 71.7902 1.3727H70.8581C70.275 3.98835 66.7248 16.9292 53.5571 16.9292C40.3894 16.9292 36.8392 3.98835 36.2561 1.3727H35.3241Z" fill="white"/>
<path d="M31.5849 1.3727C31.5849 7.77836 36.6203 21.0472 53.5571 21.0472C70.494 21.0472 75.0714 7.77836 75.0714 1.3727H71.7902C71.2853 4.07647 68.0053 17.8443 53.5571 17.8443C39.1089 17.8443 35.8289 4.07647 35.3241 1.3727H31.5849Z" fill="white"/>
<path d="M107.572 32.0283L104.673 28.462L89.6904 43.4378L92.9237 46.6698L107.572 32.0283Z" fill="white"/>
<path d="M86.5153 40.2642V24.7075M86.5153 40.2642L89.6904 43.4378M86.5153 40.2642V41.692M86.5153 40.2642L89.6889 43.4362L89.6904 43.4378M89.6904 43.4378L92.9237 46.6698L107.572 32.0283L104.673 28.462M89.6904 43.4378L104.673 28.462M86.5153 41.692V72.75M86.5153 41.692L92.9237 48.0976L109 32.0283L83.7687 1.3727C82.5993 0.153452 81.7397 0.0679641 79.5677 0H71.8672H34.7893H27.4651C25.1943 0.0114387 24.1614 0.367447 22.8876 1.83024L0 32.0284L15.5637 47.1275L23.3455 39.3491M36.1625 97C36.1625 97 40.0683 97 42.5711 97M36.1625 97H42.5711M36.1625 97L23.3455 77.3559M42.5711 97C42.9286 97 43.4866 97 43.4866 97M42.5711 97H43.4866M42.5711 97L42.5701 96.9003M42.5711 97C42.5708 96.9671 42.5705 96.9341 42.5701 96.9003M23.3455 77.3559L22.43 75.9528M23.3455 77.3559V76.9453M35.247 0.915076H71.8672M35.247 0.915076H36.1625M35.247 0.915076H27.0076C25.1314 1.12754 24.3162 1.52155 23.3454 2.74534L4.16348 28.3097M35.247 0.915076C35.247 0.915076 35.2691 1.0783 35.3241 1.3727M71.8672 0.915076H70.9517M71.8672 0.915076H80.1069C81.6873 0.952128 82.4956 1.35872 83.7689 2.74534L104.673 28.462M71.8672 0.915076C71.8672 0.915076 71.8452 1.0783 71.7902 1.3727M36.1625 0.915076H70.9517M36.1625 0.915076C36.1625 0.915076 36.1906 1.07864 36.2561 1.3727M4.16348 28.3097L4.11985 28.2662M4.16348 28.3097L1.37333 32.0283L15.5637 46.2418L18.8419 42.9651M4.16348 28.3097L18.8419 42.9651M70.9517 0.915076C70.9517 0.915076 70.9237 1.07864 70.8581 1.3727M86.5153 72.75V75.9528M86.5153 72.75C86.1545 72.7494 85.794 72.755 85.434 72.7671M86.5153 72.75L85.434 72.7671M86.5153 75.9528L85.4167 77.783M86.5153 75.9528C86.1474 76.0003 85.7832 76.0507 85.4225 76.1037M86.5153 75.9528L85.4225 76.1037M85.434 72.7671C75.6531 73.0938 66.2767 78.0591 63.6277 85.5613M85.434 72.7671L85.5445 40.7217L85.5998 24.7075M85.434 72.7671L85.4225 76.1037M43.4866 97H54.4726H65.4587M43.4866 97H65.4587M43.4866 97C43.4866 97 43.4536 96.6596 43.4438 96.0849M43.4866 97L43.4438 96.0849M42.5701 96.9003L42.5701 96.8974M66.3742 97H72.7827L85.4167 77.783M66.3742 97H65.4587M66.3742 97C66.3742 96.6889 66.3815 96.3841 66.3742 96.0849M66.3742 97V96.0849M85.4167 77.783L85.4195 76.9572M65.4587 97C65.4587 97 65.4916 96.6596 65.5013 96.0849M65.4587 97L65.5013 96.0849M66.3742 96.0849C66.1238 85.8145 61.5893 82.3585 54.4726 82.3585C47.3743 82.3585 42.7709 86.6562 42.5711 96.0849M66.3742 96.0849H42.5711M66.3742 96.0849H65.5013M43.4438 96.0849H42.5711M43.4438 96.0849C43.3905 92.947 44.0273 82.816 54.4726 82.816C64.918 82.816 65.5546 92.947 65.5013 96.0849M43.4438 96.0849H65.5013M43.4438 96.0849H54.4726H65.5013M43.3397 90.1368C38.5525 81.2945 33.8947 78.3405 23.3455 76.9453M23.3455 76.9453C23.1461 76.919 22.9445 76.8932 22.7409 76.8679L23.3455 76.9453ZM23.3455 76.9453V76.0659M22.43 75.9528V39.3786M22.43 75.9528C22.7399 75.9896 23.0451 76.0272 23.3455 76.0659M22.43 75.9528L23.3455 76.0659M22.43 39.3786V39.3491V24.7075H23.3455V39.3491M22.43 39.3786L23.3455 39.3491M22.43 39.3786L18.8419 42.9651M23.3455 76.0659C34.4482 77.4959 39.066 80.294 43.4866 88.7642M23.3455 76.0659V72.8352M23.3455 72.8352C23.0448 72.8055 22.7397 72.7771 22.43 72.75L23.3455 72.8352ZM23.3455 72.8352C36.5882 74.1444 41.1144 78.0399 45.7753 85.5613M23.3455 72.8352V39.3491M85.4195 76.9572C85.7063 76.9243 85.993 76.8946 86.2794 76.8679L85.4195 76.9572ZM85.4195 76.9572C76.9059 77.9356 68.3376 81.7266 65.6805 90.1368M85.4195 76.9572L85.4225 76.1037M85.4225 76.1037C75.3679 77.5839 68.1101 81.2552 65.4587 88.7642M42.5711 96.0849C42.5654 96.3521 42.5678 96.6229 42.5701 96.8974M42.5711 96.0849L42.5701 96.8974M52.6415 90.5943C51.726 89.6793 51.9435 87.748 52.6415 86.9341C52.8569 86.6829 53.1503 86.5007 53.4824 86.3853M52.6415 90.5943L53.4824 86.3853M52.6415 90.5943L53.2814 87.3916M52.6415 90.5943C53.3358 91.288 53.7669 89.6138 54.1343 88.7642M52.6415 90.5943L54.1343 88.7642M53.4824 86.3853C54.4064 86.0642 55.6301 86.2608 56.3035 86.9341C56.4244 87.0548 56.4894 87.1676 56.5102 87.2725M53.4824 86.3853L56.5102 87.2725M53.4824 86.3853L53.2814 87.3916M53.2814 87.3916L56.5102 87.2725M53.2814 87.3916L54.1343 88.7642M54.1343 88.7642C54.2514 88.4936 54.3619 88.3067 54.4725 88.3067C54.5693 88.3067 54.7479 88.2862 54.9608 88.2453M54.1343 88.7642L54.9608 88.2453M56.5102 87.2725C56.6135 87.794 55.6219 88.1183 54.9608 88.2453M56.5102 87.2725L54.9608 88.2453M71.7902 1.3727H75.0714C75.0714 7.77836 70.494 21.0472 53.5571 21.0472C36.6203 21.0472 31.5849 7.77836 31.5849 1.3727H35.3241M71.7902 1.3727C71.2853 4.07647 68.0053 17.8443 53.5571 17.8443C39.1089 17.8443 35.8289 4.07647 35.3241 1.3727M71.7902 1.3727H70.8581M35.3241 1.3727H36.2561M36.2561 1.3727C36.8392 3.98835 40.3894 16.9292 53.5571 16.9292C66.7248 16.9292 70.275 3.98835 70.8581 1.3727M36.2561 1.3727H70.8581" stroke="#ff5f00" stroke-width="1.3"/>
<path d="M60.1155 38.6581C60.1155 38.6581 60.1156 38.658 60.1157 38.6579L60.0037 38.5632M60.1155 38.6581C60.1153 38.6583 60.1151 38.6585 60.115 38.6587L60.0032 38.5638M60.1155 38.6581C59.9443 38.8603 59.7118 39.0654 59.4853 39.235L59.6778 39.5583M60.1155 38.6581L59.734 38.3349M60.0037 38.5632C60.0036 38.5634 60.0034 38.5636 60.0032 38.5638M60.0037 38.5632L59.734 38.3349M60.0037 38.5632C60.0229 38.5423 60.0411 38.5221 60.0581 38.5028C60.1191 38.434 60.1489 38.3954 60.1584 38.3831L59.734 38.3349M60.0032 38.5638L59.734 38.3349M60.0032 38.5638C59.9445 38.628 59.8771 38.6987 59.8073 38.7693C59.7147 38.8632 59.6218 38.953 59.5439 39.0238C59.4748 39.0866 59.4362 39.117 59.4244 39.1264C59.421 39.1291 59.4198 39.13 59.4206 39.1295C59.3674 39.1613 59.2017 39.264 59.1365 39.4713C59.1365 39.4714 59.1365 39.4715 59.1364 39.4716M59.1364 39.4716C59.1994 39.4336 59.2629 39.3925 59.3253 39.3497C59.3774 39.314 59.4308 39.2758 59.4845 39.2356L59.6778 39.5583M59.1364 39.4716C59.0606 39.5174 58.9854 39.5586 58.9137 39.5928C58.8486 39.6238 58.7755 39.6541 58.7003 39.6753C58.6372 39.6932 58.5166 39.7214 58.38 39.6966L58.3708 39.6949L58.3616 39.6929C58.3125 39.682 58.2484 39.6608 58.2066 39.647L58.2034 39.6459C58.1796 39.6381 58.1563 39.6303 58.1318 39.6221C58.0962 39.6102 58.0583 39.5975 58.013 39.5827C57.8676 39.535 57.6956 39.4811 57.5277 39.4391L57.5277 39.4391L57.5206 39.4372C57.2723 39.3712 57.0381 39.3364 56.8577 39.3096C56.784 39.2986 56.7192 39.289 56.6661 39.2791M59.1364 39.4716C59.0963 39.5996 59.1049 39.7369 59.1608 39.859C59.2109 39.9683 59.2859 40.0377 59.3377 40.077C59.4356 40.1513 59.5456 40.1888 59.6169 40.2096C59.6992 40.2336 59.7914 40.252 59.8879 40.267L59.8929 40.2678L59.8929 40.2677C60.2797 40.3236 60.5927 40.1995 60.9267 39.9704M59.6778 39.5583C59.5623 39.6271 59.5978 39.6886 59.7842 39.7371C59.7845 39.7372 59.7847 39.7372 59.785 39.7373C59.8343 39.7501 59.8941 39.762 59.9644 39.7729M59.6778 39.5583C59.7364 39.5232 59.8477 39.4265 59.9735 39.307C59.9612 39.2953 59.9503 39.2865 59.9421 39.2803C59.9154 39.2601 59.8939 39.2496 59.8851 39.2459M59.9644 39.7729L60.0085 39.2735C59.9547 39.2643 59.9185 39.2559 59.8967 39.2495C59.8915 39.248 59.8877 39.2468 59.8851 39.2459M59.9644 39.7729C60.0062 39.7789 60.0468 39.7817 60.0873 39.7809C60.0572 39.8696 60.0082 39.9241 59.9841 39.9477C59.9598 39.9714 59.9403 39.9839 59.9348 39.9873C60.026 39.9326 60.1318 39.8407 60.2137 39.7663C60.4066 39.7252 60.617 39.5949 60.9422 39.3322C61.1106 39.1938 61.2485 39.1152 61.3678 39.0942C61.4486 39.1119 61.5305 39.129 61.6134 39.1454C61.6336 39.1589 61.6533 39.1748 61.6728 39.193C61.7447 39.259 61.7813 39.3602 61.7831 39.4699L61.4945 39.4951L61.5137 39.7163L61.5139 39.7185L61.5379 39.9932L61.9357 40.2961L61.9632 40.26L61.9681 40.2535L62.0582 40.1352C62.1098 40.0684 62.1525 39.9965 62.1863 39.9218C62.3677 39.8896 62.5642 39.8444 62.6955 39.8019L62.8076 40.1485C62.7929 40.1537 62.7774 40.1589 62.7612 40.1641C62.5971 40.2173 62.3804 40.2673 62.1054 40.3112L62.1053 40.3112L61.9764 40.3318L61.9695 40.3329L61.6333 40.3866L61.573 40.3962L60.4859 40.5698L60.5059 40.5851M59.9644 39.7729L56.6661 39.2791M59.8851 39.2459C59.882 39.2448 59.8807 39.2443 59.8808 39.2442C59.8808 39.2442 59.8823 39.2447 59.8851 39.2459ZM63.1863 42.4083L63.5899 43.1254C63.7282 43.0476 64.0052 42.8356 64.2623 42.6215C64.5271 42.4011 64.8338 42.1261 65.0262 41.9003L65.0275 41.8987C65.3937 41.4652 65.7503 40.9348 66.017 40.4539C66.1506 40.2131 66.2662 39.9766 66.3499 39.7641C66.4273 39.5675 66.4999 39.3372 66.4999 39.1293C66.4999 38.7196 66.3421 38.3376 66.0718 38.0336C66.0027 37.9541 65.9143 37.8601 65.7939 37.781C65.6668 37.6976 65.5315 37.6482 65.3839 37.6168C65.1219 37.5611 64.7474 37.5505 64.1952 37.5393C63.1539 37.5168 63.0243 37.503 61.8346 37.2757C61.8006 37.2691 61.7689 37.2629 61.7391 37.257C61.7974 36.9865 61.8374 36.6845 61.8608 36.3809C61.8994 35.8792 61.8955 35.3329 61.8377 34.8488L61.8376 34.848C61.7838 34.4045 61.6861 33.9255 61.5763 33.5228C61.5214 33.3213 61.4616 33.1322 61.4001 32.9724C61.344 32.8265 61.2698 32.6596 61.1732 32.5362C60.7667 32.0144 60.0979 31.7525 59.4586 31.9927C59.3648 32.0272 59.2796 32.0819 59.22 32.1231C59.1509 32.1708 59.0768 32.2286 59.0012 32.2915C58.8496 32.4176 58.6732 32.5799 58.49 32.7599L58.4874 32.7625C57.8462 33.4018 57.3605 33.7943 56.3612 34.4779L63.1863 42.4083ZM63.1863 42.4083L62.9249 42.5902L62.6302 42.3241L62.2256 41.9588C61.9991 41.7544 61.7341 41.5256 61.6312 41.4484L61.6311 41.4484L61.6269 41.4452L61.4077 41.277L60.5059 40.5851M63.1863 42.4083L60.5059 40.5851M56.6661 39.2791C56.6158 39.2702 56.5607 39.2596 56.5114 39.2464C56.4862 39.2397 56.4511 39.2293 56.4133 39.2134C56.3816 39.2001 56.3114 39.1683 56.2434 39.104C56.1647 39.0296 56.0724 38.8923 56.0817 38.7036C56.0836 38.6639 56.0899 38.6275 56.0988 38.5945C56.0494 38.6278 56.0026 38.6596 55.96 38.6889L55.96 38.6889L55.957 38.691C55.6009 38.932 55.3455 39.0842 54.991 39.0842C54.9889 39.0842 54.9867 39.0842 54.9843 39.0842C54.9174 39.0844 54.748 39.0846 54.5949 39.0078C54.4928 38.9567 54.3906 38.8693 54.3273 38.7368L56.6661 39.2791ZM60.9267 39.9704L61.1401 39.6903L61.1845 39.632L61.1865 39.6294L61.2637 39.5279L61.2637 39.5279L61.2664 39.5245C61.2708 39.5188 61.2753 39.5109 61.2786 39.5012C61.2821 39.4913 61.2831 39.4832 61.2831 39.479C61.2831 39.4779 61.2831 39.4774 61.2831 39.4774C61.2831 39.4774 61.2834 39.4831 61.2872 39.4938C61.2922 39.5075 61.3044 39.5322 61.3305 39.5575C61.3306 39.5576 61.3307 39.5576 61.3307 39.5577C61.3316 39.5583 61.3331 39.5595 61.3353 39.561C61.3421 39.5655 61.3552 39.5731 61.3747 39.5793C61.4107 39.5908 61.4414 39.5891 61.4558 39.5864C61.458 39.586 61.4591 39.5857 61.4591 39.5857C61.4591 39.5857 61.4457 39.5896 61.4167 39.606C61.4089 39.6105 61.4004 39.6155 61.3913 39.6213C61.3904 39.6219 61.3895 39.6224 61.3886 39.623C61.3549 39.6444 61.3124 39.6752 61.2597 39.7185L61.2597 39.7185L61.2565 39.7211C61.2441 39.7311 61.2318 39.741 61.2196 39.7508C61.1188 39.8314 61.0219 39.9052 60.9267 39.9704ZM60.9267 39.9704L60.4553 40.5895L60.5059 40.5851M56.6432 34.8908C56.2442 35.1633 55.7665 35.517 55.5867 35.6735C54.8225 36.3461 54.2717 37.1927 53.9683 38.161L53.7168 38.7289M60.7531 37.9107C60.7177 37.8659 60.6885 37.815 60.6679 37.7592C60.6258 37.8517 60.5808 37.9428 60.5333 38.0314C60.5982 38.0046 60.6657 37.9885 60.7338 37.9813C60.7609 37.9784 60.7878 37.9769 60.8144 37.9765C60.7932 37.9571 60.7725 37.9352 60.7531 37.9107ZM56.8884 39.11C56.8887 39.11 56.8917 39.1082 56.8968 39.1046C56.8907 39.1083 56.8882 39.1101 56.8884 39.11Z" fill="#7DDF00" stroke="#ff5f00"/>
<path d="M65.8125 49.5729C65.8125 56.202 61.2682 61.4037 54.61 61.4037C47.9517 61.4037 43 56.6851 43 50.056C43 43.4269 47.4931 38.4935 54.1514 38.4935C60.8097 38.4935 65.8125 42.9437 65.8125 49.5729Z" fill="#FB852F"/>
<path d="M57.6322 42.3298C57.4131 42.6198 57.5423 42.9561 57.8907 43.0256C58.256 43.101 58.5145 42.5734 58.2448 42.2951C58.0762 42.1211 57.7783 42.1385 57.6322 42.3298Z" fill="white"/>
<path d="M59.4963 43.0778C59.0805 43.2576 59.2154 43.8606 59.6762 43.8606C60.0133 43.8606 60.2044 43.5301 60.0414 43.2228C59.9571 43.0604 59.6986 42.9908 59.4963 43.0778Z" fill="white"/>
<path d="M60.7731 45.3101C60.6157 45.4725 60.6269 45.7798 60.7899 45.9363C61.0653 46.2031 61.4699 46.0175 61.4699 45.629C61.4699 45.2464 61.0316 45.0434 60.7731 45.3101Z" fill="white"/>
<path d="M58.5809 45.3855C58.1313 45.6174 58.446 46.3828 58.9124 46.1799C59.0642 46.1161 59.199 45.9131 59.199 45.745C59.199 45.6348 58.9686 45.3855 58.8338 45.3449C58.7719 45.3275 58.6595 45.3449 58.5809 45.3855Z" fill="white"/>
<path d="M56.8895 48.4875C56.7041 48.6441 56.7209 48.9398 56.9176 49.1195C57.0019 49.1891 57.1031 49.2529 57.148 49.2529C57.311 49.2529 57.5077 49.1195 57.5695 48.9688C57.7381 48.5513 57.2379 48.1976 56.8895 48.4875Z" fill="white"/>
</g>
<defs>
<clipPath id="clip0_644_41">
<rect width="109" height="97" fill="white"/>
</clipPath>
</defs>
</svg>
