<svg width="109" height="97" viewBox="0 0 109 97" fill="none" xmlns="http://www.w3.org/2000/svg">
<g clip-path="url(#clip0_644_41)">
<path fill-rule="evenodd" clip-rule="evenodd" d="M43.4438 96.0849H54.4726H65.5014C65.5546 92.9471 64.918 82.816 54.4726 82.816C44.0273 82.816 43.3905 92.9471 43.4438 96.0849ZM52.6415 90.5943C51.726 89.6793 51.9435 87.748 52.6415 86.9341C52.8569 86.683 53.1503 86.5007 53.4824 86.3853C54.4064 86.0642 55.6301 86.2608 56.3035 86.9341C56.4244 87.0548 56.4894 87.1676 56.5102 87.2725C56.6135 87.794 55.6219 88.1183 54.9608 88.2453L54.1343 88.7642C53.7669 89.6138 53.3358 91.288 52.6415 90.5943Z" fill="white"/>
<path d="M86.5153 40.2642L89.6889 43.4362L89.6904 43.4378L104.673 28.462L83.7689 2.74534C82.4956 1.35872 81.6873 0.952128 80.1069 0.915076H71.8672C71.8672 0.915076 71.8452 1.0783 71.7902 1.3727H75.0714C75.0714 7.77836 70.494 21.0472 53.5571 21.0472C36.6203 21.0472 31.5849 7.77836 31.5849 1.3727H35.3241C35.2691 1.0783 35.247 0.915076 35.247 0.915076H27.0076C25.1314 1.12754 24.3162 1.52155 23.3454 2.74534L4.16348 28.3097L18.8419 42.9651L22.43 39.3786V39.3491V24.7075H23.3455V39.3491V72.8352V76.0659V76.9453V77.3559L36.1625 97H42.5711L42.5701 96.9003L42.5701 96.8974C42.5678 96.6229 42.5654 96.3521 42.5711 96.0849C42.7709 86.6562 47.3743 82.3585 54.4726 82.3585C61.5893 82.3585 66.1238 85.8145 66.3742 96.0849C66.3815 96.3841 66.3742 96.6889 66.3742 97H72.7827L85.4167 77.783L85.4195 76.9572L85.4225 76.1037L85.434 72.7671C85.794 72.755 86.1545 72.7494 86.5153 72.75V41.692V40.2642Z" fill="white"/>
<path d="M15.5637 46.2418L18.8419 42.9651L4.16348 28.3097L1.37333 32.0283L15.5637 46.2418Z" fill="white"/>
<path d="M36.2561 1.3727C36.8392 3.98835 40.3894 16.9292 53.5571 16.9292C66.7248 16.9292 70.275 3.98835 70.8581 1.3727H36.2561Z" fill="white"/>
<path d="M35.3241 1.3727C35.8289 4.07647 39.1089 17.8443 53.5571 17.8443C68.0053 17.8443 71.2853 4.07647 71.7902 1.3727H70.8581C70.275 3.98835 66.7248 16.9292 53.5571 16.9292C40.3894 16.9292 36.8392 3.98835 36.2561 1.3727H35.3241Z" fill="white"/>
<path d="M31.5849 1.3727C31.5849 7.77836 36.6203 21.0472 53.5571 21.0472C70.494 21.0472 75.0714 7.77836 75.0714 1.3727H71.7902C71.2853 4.07647 68.0053 17.8443 53.5571 17.8443C39.1089 17.8443 35.8289 4.07647 35.3241 1.3727H31.5849Z" fill="white"/>
<path d="M107.572 32.0283L104.673 28.462L89.6904 43.4378L92.9237 46.6698L107.572 32.0283Z" fill="white"/>
<path d="M86.5153 40.2642V24.7075M86.5153 40.2642L89.6904 43.4378M86.5153 40.2642V41.692M86.5153 40.2642L89.6889 43.4362L89.6904 43.4378M89.6904 43.4378L92.9237 46.6698L107.572 32.0283L104.673 28.462M89.6904 43.4378L104.673 28.462M86.5153 41.692V72.75M86.5153 41.692L92.9237 48.0976L109 32.0283L83.7687 1.3727C82.5993 0.153452 81.7397 0.0679641 79.5677 0H71.8672H34.7893H27.4651C25.1943 0.0114387 24.1614 0.367447 22.8876 1.83024L0 32.0284L15.5637 47.1275L23.3455 39.3491M36.1625 97C36.1625 97 40.0683 97 42.5711 97M36.1625 97H42.5711M36.1625 97L23.3455 77.3559M42.5711 97C42.9286 97 43.4866 97 43.4866 97M42.5711 97H43.4866M42.5711 97L42.5701 96.9003M42.5711 97C42.5708 96.9671 42.5705 96.9341 42.5701 96.9003M23.3455 77.3559L22.43 75.9528M23.3455 77.3559V76.9453M35.247 0.915076H71.8672M35.247 0.915076H36.1625M35.247 0.915076H27.0076C25.1314 1.12754 24.3162 1.52155 23.3454 2.74534L4.16348 28.3097M35.247 0.915076C35.247 0.915076 35.2691 1.0783 35.3241 1.3727M71.8672 0.915076H70.9517M71.8672 0.915076H80.1069C81.6873 0.952128 82.4956 1.35872 83.7689 2.74534L104.673 28.462M71.8672 0.915076C71.8672 0.915076 71.8452 1.0783 71.7902 1.3727M36.1625 0.915076H70.9517M36.1625 0.915076C36.1625 0.915076 36.1906 1.07864 36.2561 1.3727M4.16348 28.3097L4.11985 28.2662M4.16348 28.3097L1.37333 32.0283L15.5637 46.2418L18.8419 42.9651M4.16348 28.3097L18.8419 42.9651M70.9517 0.915076C70.9517 0.915076 70.9237 1.07864 70.8581 1.3727M86.5153 72.75V75.9528M86.5153 72.75C86.1545 72.7494 85.794 72.755 85.434 72.7671M86.5153 72.75L85.434 72.7671M86.5153 75.9528L85.4167 77.783M86.5153 75.9528C86.1474 76.0003 85.7832 76.0507 85.4225 76.1037M86.5153 75.9528L85.4225 76.1037M85.434 72.7671C75.6531 73.0938 66.2767 78.0591 63.6277 85.5613M85.434 72.7671L85.5445 40.7217L85.5998 24.7075M85.434 72.7671L85.4225 76.1037M43.4866 97H54.4726H65.4587M43.4866 97H65.4587M43.4866 97C43.4866 97 43.4536 96.6596 43.4438 96.0849M43.4866 97L43.4438 96.0849M42.5701 96.9003L42.5701 96.8974M66.3742 97H72.7827L85.4167 77.783M66.3742 97H65.4587M66.3742 97C66.3742 96.6889 66.3815 96.3841 66.3742 96.0849M66.3742 97V96.0849M85.4167 77.783L85.4195 76.9572M65.4587 97C65.4587 97 65.4916 96.6596 65.5013 96.0849M65.4587 97L65.5013 96.0849M66.3742 96.0849C66.1238 85.8145 61.5893 82.3585 54.4726 82.3585C47.3743 82.3585 42.7709 86.6562 42.5711 96.0849M66.3742 96.0849H42.5711M66.3742 96.0849H65.5013M43.4438 96.0849H42.5711M43.4438 96.0849C43.3905 92.947 44.0273 82.816 54.4726 82.816C64.918 82.816 65.5546 92.947 65.5013 96.0849M43.4438 96.0849H65.5013M43.4438 96.0849H54.4726H65.5013M43.3397 90.1368C38.5525 81.2945 33.8947 78.3405 23.3455 76.9453M23.3455 76.9453C23.1461 76.919 22.9445 76.8932 22.7409 76.8679L23.3455 76.9453ZM23.3455 76.9453V76.0659M22.43 75.9528V39.3786M22.43 75.9528C22.7399 75.9896 23.0451 76.0272 23.3455 76.0659M22.43 75.9528L23.3455 76.0659M22.43 39.3786V39.3491V24.7075H23.3455V39.3491M22.43 39.3786L23.3455 39.3491M22.43 39.3786L18.8419 42.9651M23.3455 76.0659C34.4482 77.4959 39.066 80.294 43.4866 88.7642M23.3455 76.0659V72.8352M23.3455 72.8352C23.0448 72.8055 22.7397 72.7771 22.43 72.75L23.3455 72.8352ZM23.3455 72.8352C36.5882 74.1444 41.1144 78.0399 45.7753 85.5613M23.3455 72.8352V39.3491M85.4195 76.9572C85.7063 76.9243 85.993 76.8946 86.2794 76.8679L85.4195 76.9572ZM85.4195 76.9572C76.9059 77.9356 68.3376 81.7266 65.6805 90.1368M85.4195 76.9572L85.4225 76.1037M85.4225 76.1037C75.3679 77.5839 68.1101 81.2552 65.4587 88.7642M42.5711 96.0849C42.5654 96.3521 42.5678 96.6229 42.5701 96.8974M42.5711 96.0849L42.5701 96.8974M52.6415 90.5943C51.726 89.6793 51.9435 87.748 52.6415 86.9341C52.8569 86.6829 53.1503 86.5007 53.4824 86.3853M52.6415 90.5943L53.4824 86.3853M52.6415 90.5943L53.2814 87.3916M52.6415 90.5943C53.3358 91.288 53.7669 89.6138 54.1343 88.7642M52.6415 90.5943L54.1343 88.7642M53.4824 86.3853C54.4064 86.0642 55.6301 86.2608 56.3035 86.9341C56.4244 87.0548 56.4894 87.1676 56.5102 87.2725M53.4824 86.3853L56.5102 87.2725M53.4824 86.3853L53.2814 87.3916M53.2814 87.3916L56.5102 87.2725M53.2814 87.3916L54.1343 88.7642M54.1343 88.7642C54.2514 88.4936 54.3619 88.3067 54.4725 88.3067C54.5693 88.3067 54.7479 88.2862 54.9608 88.2453M54.1343 88.7642L54.9608 88.2453M56.5102 87.2725C56.6135 87.794 55.6219 88.1183 54.9608 88.2453M56.5102 87.2725L54.9608 88.2453M71.7902 1.3727H75.0714C75.0714 7.77836 70.494 21.0472 53.5571 21.0472C36.6203 21.0472 31.5849 7.77836 31.5849 1.3727H35.3241M71.7902 1.3727C71.2853 4.07647 68.0053 17.8443 53.5571 17.8443C39.1089 17.8443 35.8289 4.07647 35.3241 1.3727M71.7902 1.3727H70.8581M35.3241 1.3727H36.2561M36.2561 1.3727C36.8392 3.98835 40.3894 16.9292 53.5571 16.9292C66.7248 16.9292 70.275 3.98835 70.8581 1.3727M36.2561 1.3727H70.8581" stroke="#FF5F00" stroke-width="1.3"/>
<path d="M60.2567 33.7833C60.5433 34.8096 60.6276 36.0098 60.4647 36.8042C60.3579 37.326 60.0544 37.958 59.7341 38.3349C59.3857 38.7466 58.6608 39.2394 58.4697 39.2046C58.391 39.1872 58.02 39.0468 57.6492 38.954C57.2783 38.8554 56.8794 38.8104 56.7557 38.7872C56.559 38.7524 56.5422 38.735 56.6377 38.677C57.2896 38.2653 58.1269 37.6681 58.4416 37.3898C59.071 36.8274 59.706 35.8939 59.706 35.5286C59.706 35.1401 59.2733 34.9604 59.0148 35.2445C58.9474 35.3141 58.8069 35.5344 58.7057 35.7199C58.6046 35.9055 58.4191 36.178 58.3011 36.3229L58.0819 36.5839L58.0763 36.4041C58.0763 36.1374 57.8853 35.9171 57.6605 35.9171C57.3907 35.9171 57.2559 36.1026 57.2165 36.5259C57.1941 36.7172 57.1379 36.9955 57.0873 37.1463C57.0086 37.3956 56.9524 37.4478 56.5703 37.6971C56.3286 37.8421 55.9296 38.103 55.6768 38.2769C55.3171 38.5205 55.1766 38.5842 54.9912 38.5842C54.6821 38.5842 54.6877 38.5089 55.053 37.7667C55.4464 36.9549 56.0476 36.3229 57.121 35.5982C58.1494 34.9024 58.672 34.4849 59.352 33.8123C60.0376 33.1397 60.0713 33.1339 60.2567 33.7833Z" fill="#7DDF00"/>
<path d="M65.5253 38.5919C65.6096 38.6441 64.9407 39.5892 64.9407 39.5892C64.9407 39.5892 63.7436 41.4156 63.1873 41.8157L62.9456 41.9839L62.541 41.6186C62.3163 41.4156 62.0353 41.1721 61.9116 41.0793L61.6925 40.9112L59.9099 39.816L59.5701 39.6676C59.5701 39.6676 60.0107 38.9853 60.4568 38.7887C60.8078 38.634 60.9701 38.6038 61.4306 38.6615C63.3136 38.8165 64.2138 38.7921 65.5253 38.5919Z" fill="#7DDF00"/>
<path d="M57.6081 37.4233C57.5673 37.4531 57.5243 37.4842 57.4793 37.5164C57.5153 37.4433 57.5407 37.371 57.563 37.3008C57.5756 37.2627 57.5882 37.22 57.6003 37.1745L57.6081 37.4233Z" stroke="#FF5F00"/>
<path d="M65.8125 49.5729C65.8125 56.202 61.2682 61.4037 54.61 61.4037C47.9517 61.4037 43 56.6851 43 50.056C43 43.4269 47.4931 38.4935 54.1514 38.4935C60.8097 38.4935 65.8125 42.9437 65.8125 49.5729Z" fill="#FF5F00"/>
<path d="M57.6322 42.3298C57.4131 42.6198 57.5423 42.9561 57.8907 43.0256C58.256 43.101 58.5145 42.5734 58.2448 42.2951C58.0762 42.1211 57.7783 42.1385 57.6322 42.3298Z" fill="white"/>
<path d="M59.4963 43.0778C59.0805 43.2576 59.2154 43.8606 59.6762 43.8606C60.0133 43.8606 60.2044 43.5301 60.0414 43.2228C59.9571 43.0604 59.6986 42.9908 59.4963 43.0778Z" fill="white"/>
<path d="M60.7731 45.3101C60.6157 45.4725 60.6269 45.7798 60.7899 45.9363C61.0653 46.2031 61.4699 46.0175 61.4699 45.629C61.4699 45.2464 61.0316 45.0434 60.7731 45.3101Z" fill="white"/>
<path d="M58.5809 45.3855C58.1313 45.6174 58.446 46.3828 58.9124 46.1799C59.0642 46.1161 59.199 45.9131 59.199 45.745C59.199 45.6348 58.9686 45.3855 58.8338 45.3449C58.7719 45.3275 58.6595 45.3449 58.5809 45.3855Z" fill="white"/>
<path d="M56.8895 48.4875C56.7041 48.6441 56.7209 48.9398 56.9176 49.1195C57.0019 49.1891 57.1031 49.2529 57.148 49.2529C57.311 49.2529 57.5077 49.1195 57.5695 48.9688C57.7381 48.5513 57.2379 48.1976 56.8895 48.4875Z" fill="white"/>
</g>
<defs>
<clipPath id="clip0_644_41">
<rect width="109" height="97" fill="white"/>
</clipPath>
</defs>
</svg>
