<svg width="103" height="93" viewBox="0 0 103 93" fill="none" xmlns="http://www.w3.org/2000/svg">
<g clip-path="url(#clip0_658_3)">
<path fill-rule="evenodd" clip-rule="evenodd" d="M41.0524 92.0824H51.4741H61.8958C61.9461 89.1063 61.3445 79.4975 51.4741 79.4975C41.6037 79.4975 41.0021 89.1063 41.0524 92.0824ZM49.7438 86.8748C48.8787 86.007 49.0843 84.1753 49.7438 83.4032C49.9473 83.1651 50.2246 82.9922 50.5384 82.8827C51.4116 82.5782 52.5679 82.7647 53.2043 83.4032C53.3185 83.5177 53.3799 83.6247 53.3995 83.7242C53.4972 84.2188 52.5601 84.5264 51.9354 84.6469L51.1545 85.1391C50.8072 85.9449 50.3999 87.5327 49.7438 86.8748Z" fill="white"/>
<path d="M81.753 39.139L84.7519 42.1476L84.7533 42.149L98.9115 27.9452L79.1577 3.55414C77.9545 2.239 77.1907 1.85337 75.6973 1.81822H67.9112C67.9112 1.81822 67.8904 1.97304 67.8384 2.25226H70.939C70.939 8.32773 66.6136 20.9126 50.609 20.9126C34.6045 20.9126 29.8463 8.32773 29.8463 2.25226H33.3796C33.3277 1.97304 33.3068 1.81822 33.3068 1.81822H25.5209C23.748 2.01974 22.9777 2.39344 22.0603 3.55414L3.9343 27.8008L17.8047 41.7007L21.1953 38.2991V38.2711V24.3843H22.0604V38.2711V70.0311V73.0953V73.9294V74.3188L34.1719 92.9503H40.2277L40.2268 92.8557L40.2268 92.853C40.2246 92.5927 40.2224 92.3358 40.2277 92.0824C40.4166 83.1397 44.7665 79.0635 51.4741 79.0635C58.1991 79.0635 62.484 82.3414 62.7206 92.0824C62.7275 92.3662 62.7206 92.6552 62.7206 92.9503H68.7763L80.7149 74.7239L80.7175 73.9407L80.7203 73.1312L80.7312 69.9665C81.0714 69.9551 81.412 69.9497 81.753 69.9503V40.4932V39.139Z" fill="white"/>
<path d="M14.707 44.8085L17.8047 41.7007L3.9343 27.8008L1.29773 31.3277L14.707 44.8085Z" fill="white"/>
<path d="M34.2604 2.25226C34.8114 4.73308 38.1661 17.0069 50.609 17.0069C63.0519 17.0069 66.4067 4.73308 66.9577 2.25226H34.2604Z" fill="white"/>
<path d="M33.3796 2.25226C33.8567 4.81666 36.9562 17.8748 50.609 17.8748C64.2619 17.8748 67.3614 4.81666 67.8384 2.25226H66.9577C66.4067 4.73308 63.0519 17.0069 50.609 17.0069C38.1661 17.0069 34.8114 4.73308 34.2604 2.25226H33.3796Z" fill="white"/>
<path d="M29.8463 2.25226C29.8463 8.32773 34.6045 20.9126 50.609 20.9126C66.6136 20.9126 70.939 8.32773 70.939 2.25226H67.8384C67.3614 4.81666 64.2619 17.8748 50.609 17.8748C36.9562 17.8748 33.8567 4.81666 33.3796 2.25226H29.8463Z" fill="white"/>
<path d="M101.65 31.3277L98.9115 27.9452L84.7533 42.149L87.8087 45.2145L101.65 31.3277Z" fill="white"/>
<path d="M81.753 39.139V24.3843M81.753 39.139L84.7533 42.149M81.753 39.139V40.4932M81.753 39.139L84.7519 42.1476L84.7533 42.149M84.7533 42.149L87.8087 45.2145L101.65 31.3277L98.9115 27.9452M84.7533 42.149L98.9115 27.9452M81.753 40.4932V69.9503M81.753 40.4932L87.8087 46.5687L103 31.3277L79.1576 2.25226C78.0526 1.09586 77.2402 1.01478 75.1878 0.950317H67.9112H32.8743H25.9533C23.8075 0.961166 22.8314 1.29882 21.6278 2.68622L0 31.3278L14.707 45.6485L22.0604 38.2711M34.1719 92.9503C34.1719 92.9503 37.8628 92.9503 40.2277 92.9503M34.1719 92.9503H40.2277M34.1719 92.9503L22.0604 74.3188M40.2277 92.9503C40.5655 92.9503 41.0928 92.9503 41.0928 92.9503M40.2277 92.9503H41.0928M40.2277 92.9503L40.2268 92.8557M40.2277 92.9503C40.2274 92.9191 40.2272 92.8878 40.2268 92.8557M22.0604 74.3188L21.1953 72.9881M22.0604 74.3188V73.9294M33.3068 1.81822H67.9112M33.3068 1.81822H34.1719M33.3068 1.81822H25.5209C23.748 2.01974 22.9777 2.39344 22.0603 3.55414L3.9343 27.8008M33.3068 1.81822C33.3068 1.81822 33.3277 1.97304 33.3796 2.25226M67.9112 1.81822H67.0461M67.9112 1.81822H75.6973C77.1907 1.85337 77.9545 2.239 79.1577 3.55414L98.9115 27.9452M67.9112 1.81822C67.9112 1.81822 67.8904 1.97304 67.8384 2.25226M34.1719 1.81822H67.0461M34.1719 1.81822C34.1719 1.81822 34.1984 1.97335 34.2604 2.25226M3.9343 27.8008L3.89306 27.7595M3.9343 27.8008L1.29773 31.3277L14.707 44.8085L17.8047 41.7007M3.9343 27.8008L17.8047 41.7007M67.0461 1.81822C67.0461 1.81822 67.0196 1.97335 66.9577 2.25226M81.753 69.9503V72.9881M81.753 69.9503C81.412 69.9497 81.0714 69.9551 80.7312 69.9665M81.753 69.9503L80.7312 69.9665M81.753 72.9881L80.7149 74.7239M81.753 72.9881C81.4054 73.0331 81.0612 73.0808 80.7203 73.1312M81.753 72.9881L80.7203 73.1312M80.7312 69.9665C71.4887 70.2764 62.6284 74.9858 60.1252 82.1013M80.7312 69.9665L80.8356 39.573L80.8879 24.3843M80.7312 69.9665L80.7203 73.1312M41.0928 92.9503H51.4741H61.8555M41.0928 92.9503H61.8555M41.0928 92.9503C41.0928 92.9503 41.0617 92.6274 41.0524 92.0824M41.0928 92.9503L41.0524 92.0824M40.2268 92.8557L40.2268 92.853M40.2268 92.8557L40.2268 92.853M62.7206 92.9503H68.7763L80.7149 74.7239M62.7206 92.9503H61.8555M62.7206 92.9503C62.7206 92.6552 62.7275 92.3662 62.7206 92.0824M62.7206 92.9503V92.0824M80.7149 74.7239L80.7175 73.9407M61.8555 92.9503C61.8555 92.9503 61.8866 92.6274 61.8958 92.0824M61.8555 92.9503L61.8958 92.0824M62.7206 92.0824C62.484 82.3414 58.1991 79.0635 51.4741 79.0635C44.7665 79.0635 40.4166 83.1397 40.2277 92.0824M62.7206 92.0824H40.2277M62.7206 92.0824H61.8958M41.0524 92.0824H40.2277M41.0524 92.0824C41.0021 89.1063 41.6037 79.4975 51.4741 79.4975C61.3445 79.4975 61.9461 89.1063 61.8958 92.0824M41.0524 92.0824H61.8958M41.0524 92.0824H51.4741H61.8958M40.954 86.4409C36.4304 78.0544 32.029 75.2526 22.0604 73.9294M22.0604 73.9294C21.872 73.9044 21.6815 73.8799 21.4891 73.856L22.0604 73.9294ZM22.0604 73.9294V73.0953M21.1953 72.9881V38.2991M21.1953 72.9881C21.4882 73.0229 21.7765 73.0586 22.0604 73.0953M21.1953 72.9881L22.0604 73.0953M21.1953 38.2991V38.2711V24.3843H22.0604V38.2711M21.1953 38.2991L22.0604 38.2711M21.1953 38.2991L17.8047 41.7007M22.0604 73.0953C32.552 74.4515 36.9155 77.1055 41.0928 85.139M22.0604 73.0953V70.0311M22.0604 70.0311C21.7763 70.0029 21.4879 69.976 21.1953 69.9503L22.0604 70.0311ZM22.0604 70.0311C34.5742 71.2729 38.8512 74.9675 43.2556 82.1013M22.0604 70.0311V38.2711M80.7175 73.9407C80.9885 73.9094 81.2594 73.8812 81.53 73.856L80.7175 73.9407ZM80.7175 73.9407C72.6725 74.8686 64.5759 78.4642 62.0651 86.4409M80.7175 73.9407L80.7203 73.1312M80.7203 73.1312C71.2192 74.535 64.3609 78.0171 61.8555 85.139M40.2277 92.0824C40.2224 92.3358 40.2246 92.5927 40.2268 92.853M40.2277 92.0824L40.2268 92.853M49.7438 86.8748C48.8787 86.007 49.0843 84.1753 49.7438 83.4032C49.9473 83.1651 50.2246 82.9922 50.5384 82.8827M49.7438 86.8748L50.5384 82.8827M49.7438 86.8748L50.3485 83.8372M49.7438 86.8748C50.3999 87.5327 50.8072 85.9449 51.1545 85.1391M49.7438 86.8748L51.1545 85.1391M50.5384 82.8827C51.4116 82.5782 52.5679 82.7647 53.2043 83.4032C53.3185 83.5177 53.3799 83.6247 53.3995 83.7242M50.5384 82.8827L53.3995 83.7242M50.5384 82.8827L50.3485 83.8372M50.3485 83.8372L53.3995 83.7242M50.3485 83.8372L51.1545 85.1391M51.1545 85.1391C51.265 84.8823 51.3695 84.7051 51.474 84.7051C51.5655 84.7051 51.7343 84.6857 51.9354 84.6469M51.1545 85.1391L51.9354 84.6469M53.3995 83.7242C53.4972 84.2188 52.5601 84.5264 51.9354 84.6469M53.3995 83.7242L51.9354 84.6469M67.8384 2.25226H70.939C70.939 8.32773 66.6136 20.9126 50.609 20.9126C34.6045 20.9126 29.8463 8.32773 29.8463 2.25226H33.3796M67.8384 2.25226C67.3614 4.81666 64.2619 17.8748 50.609 17.8748C36.9562 17.8748 33.8567 4.81666 33.3796 2.25226M67.8384 2.25226H66.9577M33.3796 2.25226H34.2604M34.2604 2.25226C34.8114 4.73308 38.1661 17.0069 50.609 17.0069C63.0519 17.0069 66.4067 4.73308 66.9577 2.25226M34.2604 2.25226H66.9577" stroke="#FB852F" stroke-width="1.3"/>
<path d="M54.1144 32.0103C53.9795 32.0586 53.6567 32.3302 53.2871 32.6923C52.5888 33.3863 52.0548 33.8148 50.9928 34.539C50.5762 34.8226 50.0774 35.1907 49.8896 35.3537C49.0916 36.0537 48.5166 36.9348 48.1997 37.9426L48.0648 38.3832H47.7948C46.9323 38.3832 45.0487 38.7392 43.9808 39.1074C42.9598 39.4574 42.5256 39.6747 42.4845 39.8497C42.42 40.0971 42.4728 40.2661 42.6488 40.3988C42.8072 40.5195 42.8131 40.5195 43.0889 40.4109C45.125 39.5962 46.6154 39.2884 48.5283 39.2884C50.6055 39.2884 52.4656 39.7048 54.179 40.5558C57.1656 42.0403 59.0257 44.5509 59.5538 47.8157C59.7064 48.7451 59.7592 48.8477 60.0937 48.8477C60.434 48.8477 60.5513 48.6546 60.4985 48.1597C60.3049 46.2768 59.4951 44.231 58.3744 42.8068C58.1749 42.5593 58.1749 42.5533 58.2981 42.4869C58.4918 42.3783 59.0081 41.8955 59.3485 41.4972C60.0643 40.6523 60.7626 39.4031 60.7626 38.9505C60.7626 38.6608 60.6511 38.3832 60.4457 38.1539C60.1934 37.8642 60.0643 37.84 58.8673 37.8159C57.7466 37.7918 57.5823 37.7737 56.3148 37.5323C55.7515 37.4236 55.6576 37.3874 55.687 37.3029C55.9158 36.6934 56.0097 35.4864 55.8982 34.5571C55.7926 33.688 55.5109 32.6621 55.3114 32.4086C55.0004 32.0103 54.531 31.8534 54.1144 32.0103ZM54.7657 33.3863C55.065 34.4545 55.153 35.7037 54.9828 36.5305C54.8714 37.0736 54.5545 37.7314 54.22 38.1237C53.8562 38.5522 53.0993 39.0651 52.8998 39.0289C52.8176 39.0108 52.4362 38.9143 52.049 38.8177C51.6617 38.7151 51.2392 38.6186 51.1101 38.5944C50.9047 38.5582 50.8871 38.5401 50.9869 38.4797C51.6676 38.0513 52.5419 37.4297 52.8704 37.14C53.5276 36.5546 54.1907 35.583 54.1907 35.2028C54.1907 34.7985 53.7389 34.6114 53.469 34.9071C53.3985 34.9795 53.2519 35.2088 53.1462 35.402C53.0406 35.5951 52.847 35.8787 52.7238 36.0296L52.4949 36.3012L52.489 36.1141C52.489 35.8365 52.2895 35.6071 52.0548 35.6071C51.7732 35.6071 51.6323 35.8003 51.5913 36.2408C51.5678 36.44 51.5091 36.7296 51.4563 36.8865C51.3742 37.146 51.3155 37.2004 50.9165 37.4599C50.6642 37.6107 50.2476 37.8823 49.9835 38.0633C49.608 38.3168 49.4613 38.3832 49.2676 38.3832C48.9449 38.3832 48.9508 38.3047 49.3322 37.5323C49.7429 36.6874 50.3708 36.0296 51.4915 35.2752C52.5653 34.551 53.111 34.1165 53.821 33.4165C54.5369 32.7164 54.5721 32.7104 54.7657 33.3863ZM55.8337 38.3591C56.6962 38.5642 57.7113 38.697 58.7323 38.7211C59.3074 38.7332 59.8003 38.7634 59.8296 38.7815C59.9176 38.8358 59.8883 38.9746 59.7299 39.3065C59.2956 40.1937 58.4272 41.298 57.8463 41.7145L57.594 41.8895L57.1715 41.5093C56.9368 41.298 56.6434 41.0446 56.5143 40.948L56.2855 40.773L56.7784 40.6946C57.993 40.5014 58.4213 40.1635 58.0575 39.6867C57.9167 39.4996 57.7994 39.4936 57.3123 39.6505C57.107 39.7169 56.749 39.7893 56.5202 39.8135L56.1036 39.8497L56.2327 39.6807C56.397 39.4695 56.4028 39.1617 56.2444 39.0169C56.0508 38.8358 55.8278 38.8781 55.4816 39.1617C54.9946 39.554 54.754 39.6626 54.4606 39.6203C54.1085 39.566 54.0088 39.4876 54.1614 39.3971C54.3433 39.2884 55.0122 38.6125 55.1178 38.4315C55.2293 38.2384 55.3056 38.2263 55.8337 38.3591Z" fill="#FB852F"/>
<path d="M40.8708 40.7187C40.7123 40.7851 40.0845 41.3041 39.6151 41.7627C38.019 43.3318 36.9922 45.3535 36.6049 47.7131C36.4641 48.6003 36.4641 50.5797 36.6108 51.4487C36.8337 52.8066 37.1799 53.9049 37.7432 55.0697C40.4131 60.5735 46.5684 63.2349 52.2483 61.346L52.8821 61.1348L53.2459 61.2856C53.7211 61.4848 54.7949 61.7684 55.4228 61.865C56.2032 61.9796 57.6232 61.9495 58.4212 61.8046C59.8178 61.5512 61.2847 60.9235 62.4641 60.0605C63.1448 59.5657 64.1951 58.4975 64.6587 57.8216C65.6386 56.4094 66.2664 54.774 66.4601 53.1325C66.5422 52.3962 66.507 52.1488 66.2664 51.8652C65.8967 51.4367 66.0141 51.4487 63.092 51.4306L60.4632 51.4125L60.5043 50.9358C60.5395 50.4832 60.5336 50.459 60.3928 50.3081C60.2109 50.1211 60.0055 50.109 59.8178 50.2599C59.7121 50.3504 59.6769 50.4711 59.6241 50.8815L59.5596 51.3884L56.4907 51.4186L53.416 51.4487L53.2752 51.6177C53.105 51.8229 53.0992 51.9557 53.2576 52.1669L53.375 52.3238H54.5192C55.147 52.3238 55.6575 52.3419 55.6575 52.3721C55.6575 52.3962 54.6952 53.4041 53.5158 54.6171L51.3682 56.8198L51.2508 56.6689C50.2944 55.4438 49.69 53.9653 49.602 52.6557L49.5844 52.354L50.6112 52.3359C51.5677 52.3238 51.644 52.3117 51.7672 52.191C52.0019 51.9617 51.9139 51.6117 51.5853 51.4789C51.374 51.4005 48.2055 51.4005 47.8534 51.485C47.7126 51.5151 47.5072 51.6117 47.4016 51.6962C47.0495 51.9738 46.9615 52.2816 47.0378 52.9937C47.2021 54.4662 47.7302 56.0413 48.4812 57.2543C49.115 58.2923 50.2357 59.4933 51.198 60.1692L51.7555 60.5554L51.4914 60.6339C50.0949 61.0563 48.0998 61.1589 46.6446 60.8873C44.8432 60.5554 43.1474 59.789 41.7216 58.6665C41.2404 58.2923 40.284 57.3328 39.8732 56.8198C38.0249 54.4964 37.1037 51.3462 37.4146 48.4132C37.6963 45.7156 38.9168 43.4344 40.9881 41.7265C41.346 41.4308 41.4341 41.3282 41.4458 41.1713C41.4751 40.8515 41.1641 40.604 40.8708 40.7187ZM48.6983 52.4566C48.716 52.535 48.7336 52.6919 48.7336 52.8066C48.7336 53.1144 48.9389 54.0619 49.1208 54.599C49.9482 57.0914 52.0019 59.107 54.4664 59.8614C55.546 60.1933 57.0188 60.2838 58.122 60.0847C60.8329 59.5959 63.1272 57.7069 64.2068 55.0818C64.4709 54.436 64.6293 53.8325 64.7467 53.0178L64.8464 52.354L65.1339 52.3359C65.3158 52.3238 65.4684 52.3479 65.5388 52.4023C65.6444 52.4807 65.6444 52.523 65.5799 53.0359C64.8699 58.763 59.2486 62.3961 53.9383 60.5675C50.8518 59.5053 48.5693 56.7896 48.006 53.5127C47.8123 52.3842 47.8299 52.3238 48.3522 52.3238C48.6221 52.3238 48.6631 52.3419 48.6983 52.4566ZM63.9311 52.4686C63.9311 52.5471 63.89 52.8428 63.843 53.1264C63.6318 54.3757 63.1037 55.5887 62.3526 56.5362L62.1473 56.7957L60.0173 54.605C58.8437 53.4041 57.8873 52.3962 57.8873 52.3721C57.8873 52.3419 59.2486 52.3238 60.9092 52.3238H63.9311V52.4686ZM56.303 56.156V59.2639H56.1035C55.7866 59.2639 55.0121 59.095 54.4781 58.9079C53.6625 58.6242 52.8938 58.1837 52.1075 57.544C51.996 57.4535 52.084 57.3569 54.1319 55.2507C55.3113 54.0377 56.2795 53.048 56.2854 53.048C56.2971 53.048 56.303 54.4481 56.303 56.156ZM59.4011 55.2387L61.5311 57.4293L61.2671 57.6587C60.7859 58.063 59.9997 58.5277 59.3953 58.7751C58.7909 59.0165 57.7816 59.2639 57.3944 59.2639H57.1831V56.156C57.1831 54.4481 57.2007 53.048 57.2301 53.048C57.2535 53.048 58.2335 54.0317 59.4011 55.2387Z" fill="#FB852F"/>
<path d="M60.0053 53.0239C59.7647 53.3437 59.8703 53.5911 60.3221 53.7662C60.7329 53.9231 60.8268 53.9231 61.0204 53.7662C61.3255 53.5187 61.1788 53.1204 60.7211 52.9635C60.3221 52.8247 60.1461 52.8368 60.0053 53.0239Z" fill="#FB852F"/>
<path d="M54.9126 54.9912C54.7131 55.2206 54.543 55.5404 54.543 55.7094C54.543 55.9146 54.7718 56.1258 54.9889 56.1258C55.1884 56.1258 55.3469 55.9809 55.5346 55.6128C55.693 55.305 55.6872 55.1904 55.5111 55.0093C55.3292 54.8162 55.0711 54.8102 54.9126 54.9912Z" fill="#FB852F"/>
<path d="M58.0046 54.9792C57.8403 55.1481 57.8579 55.4438 58.0398 55.7335C58.2452 56.0473 58.3449 56.1258 58.5444 56.1258C58.7615 56.1258 58.9434 55.9327 58.9434 55.6973C58.9434 55.4861 58.6911 55.0033 58.5327 54.9188C58.3566 54.8222 58.1337 54.8464 58.0046 54.9792Z" fill="#FB852F"/>
<path d="M52.0257 42.2817C51.7968 42.5835 51.9318 42.9335 52.2956 43.0059C52.677 43.0844 52.9469 42.5352 52.6652 42.2455C52.4892 42.0645 52.1782 42.0826 52.0257 42.2817Z" fill="#FB852F"/>
<path d="M53.9732 43.0602C53.539 43.2473 53.6798 43.8749 54.1609 43.8749C54.513 43.8749 54.7125 43.531 54.5423 43.2111C54.4543 43.0421 54.1844 42.9697 53.9732 43.0602Z" fill="#FB852F"/>
<path d="M55.3053 45.3837C55.141 45.5526 55.1528 45.8725 55.3229 46.0354C55.6105 46.313 56.0329 46.1199 56.0329 45.7156C56.0329 45.3173 55.5753 45.1061 55.3053 45.3837Z" fill="#FB852F"/>
<path d="M53.0172 45.4621C52.5478 45.7035 52.8764 46.5001 53.3634 46.2889C53.5219 46.2225 53.6627 46.0113 53.6627 45.8363C53.6627 45.7216 53.4221 45.4621 53.2813 45.4199C53.2167 45.4018 53.0994 45.4199 53.0172 45.4621Z" fill="#FB852F"/>
<path d="M51.2507 48.6908C51.0571 48.8537 51.0747 49.1615 51.28 49.3486C51.3681 49.421 51.4737 49.4874 51.5206 49.4874C51.6908 49.4874 51.8962 49.3486 51.9607 49.1917C52.1367 48.7572 51.6145 48.389 51.2507 48.6908Z" fill="#FB852F"/>
<path d="M52.7234 52.9756C52.3126 53.1385 52.2012 53.5308 52.5004 53.7842C52.6471 53.917 52.829 53.9231 53.1459 53.7903C53.5038 53.6515 53.6035 53.5429 53.6035 53.3075C53.6035 52.8971 53.2632 52.7644 52.7234 52.9756Z" fill="#FB852F"/>
</g>
<defs>
<clipPath id="clip0_658_3">
<rect width="103" height="92" fill="white" transform="translate(0 0.950317)"/>
</clipPath>
</defs>
</svg>
