<svg width="22" height="22" viewBox="0 0 22 22" fill="none" xmlns="http://www.w3.org/2000/svg">
<path d="M6.25625 0C2.81445 0 0 3.14912 0 7.02832C0 14.9838 7.96855 19.1502 10.6562 21.669L11 22L11.3438 21.669C14.0314 19.1502 22 14.9838 22 7.02832C22 3.14912 19.1855 0 15.7438 0C13.8316 0 12.1473 1.00509 11 2.53097C9.85273 1.00509 8.16836 0 6.25625 0ZM6.25625 1.24602C8.05234 1.24602 9.61426 2.27544 10.5359 3.8354L11 4.61416L11.4641 3.8354C12.3857 2.27544 13.9477 1.24602 15.7438 1.24602C18.5947 1.24602 20.9 3.8281 20.9 7.02832C20.9 13.8181 14.1561 17.6243 11 20.423C7.84395 17.6243 1.1 13.8181 1.1 7.02832C1.1 3.8281 3.40313 1.24602 6.25625 1.24602Z" 
fill="#4d5152"/>
</svg>
