<svg xmlns="http://www.w3.org/2000/svg" viewBox="0 0 50 50">
  <path d="M0 7L0 9.78125C3.011719 12.402344 20.289063 27.464844 21.65625 28.65625C23.0625 29.882813 24.464844 30 25 30C25.535156 30 26.9375 29.882813 28.34375 28.65625C29.761719 27.421875 48.046875 11.480469 50 9.78125L50 7 Z M 0 12.4375L0 37.53125L15.125 25.59375C10.222656 21.328125 3.230469 15.25 0 12.4375 Z M 50 12.4375C46.949219 15.09375 39.847656 21.265625 34.875 25.59375L50 37.5 Z M 16.65625 26.9375L0 40.0625L0 43L50 43L50 40.03125L33.34375 26.9375C31.40625 28.625 30.011719 29.847656 29.65625 30.15625C27.738281 31.824219 25.757813 32 25 32C24.242188 32 22.261719 31.828125 20.34375 30.15625C19.992188 29.851563 18.597656 28.628906 16.65625 26.9375Z" fill="#FF6800" />
</svg>