<svg width="35" height="35" viewBox="0 0 35 35" fill="none" xmlns="http://www.w3.org/2000/svg">
<path fill-rule="evenodd" clip-rule="evenodd" d="M21.449 26.0971C28.8755 26.0971 35 20.6764 35 13.0485C35 5.42067 28.8755 0 21.449 0C14.0225 0 7.89795 5.84203 7.89795 13.0485C7.89795 20.2551 13.9649 26.0971 21.449 26.0971ZM32.5362 13.0485C32.5362 6.91814 27.4175 2.37246 21.449 2.37246C15.4804 2.37246 10.3618 6.91814 10.3618 13.0485C10.3618 19.1789 15.4804 23.7246 21.449 23.7246C27.4175 23.7246 32.5362 19.179 32.5362 13.0485Z" 
fill="#666666"/>
<path d="M11.5145 21.923L0 33.0106L1.93689 35L13.6503 23.7209C12.8744 23.1943 12.1586 22.5912 11.5145 21.923Z" 
fill="#666666"/>
</svg>
