<svg width="24" height="24" viewBox="0 0 24 24" fill="none" xmlns="http://www.w3.org/2000/svg">
<path d="M12.0007 4C9.59042 4 7.63687 5.86852 7.63687 8.17391V8.86957C7.63687 11.175 9.59042 13.0435 12.0007 13.0435C14.411 13.0435 16.3645 11.175 16.3645 8.86957V8.17391C16.3645 5.86852 14.411 4 12.0007 4ZM11.9993 15.1304C9.0857 15.1304 5.34735 16.6378 4.27166 17.9755C3.6069 18.8027 4.23972 20 5.32995 20H18.6701C19.7603 20 20.3931 18.8027 19.7283 17.9755C18.6527 16.6385 14.9129 15.1304 11.9993 15.1304Z" 
fill="#666666"/>
<circle cx="12" cy="12" r="11.5" stroke="#666666"/>
</svg>
