<svg width="121" height="121" viewBox="0 0 121 121" fill="none" xmlns="http://www.w3.org/2000/svg">
<circle cx="60.498" cy="60.5454" r="58.5" fill="#4E4E4E" stroke="#FB852F" stroke-width="3"/>
<path fill-rule="evenodd" clip-rule="evenodd" d="M50.5576 108.621H60.4734H70.3892C70.4371 105.451 69.8647 95.2152 60.4734 95.2152C51.0822 95.2152 50.5097 105.451 50.5576 108.621ZM58.8271 103.074C58.004 102.149 58.1996 100.198 58.8271 99.3757C59.0207 99.122 59.2845 98.9378 59.5832 98.8213C60.4139 98.4968 61.5141 98.6955 62.1196 99.3757C62.2282 99.4976 62.2867 99.6116 62.3054 99.7176C62.3983 100.244 61.5067 100.572 60.9123 100.7L60.1693 101.225C59.8389 102.083 59.4514 103.775 58.8271 103.074Z" fill="#FFFBFB"/>
<path d="M44.0953 12.9323C44.6195 15.5749 47.8115 28.6492 59.6503 28.6492C71.4892 28.6492 74.6811 15.5749 75.2053 12.9323H44.0953Z" fill="#FFFBFB"/>
<path d="M43.2573 12.9323C43.7112 15.6639 46.6602 29.5737 59.6503 29.5737C72.6404 29.5737 75.5895 15.6639 76.0433 12.9323H75.2053C74.6811 15.5749 71.4892 28.6492 59.6503 28.6492C47.8115 28.6492 44.6195 15.5749 44.0953 12.9323H43.2573Z" fill="#FFFBFB"/>
<path d="M39.8955 12.9323C39.8955 19.404 44.4227 32.8096 59.6503 32.8096C74.8779 32.8096 78.9934 19.404 78.9934 12.9323H76.0433C75.5895 15.6639 72.6404 29.5737 59.6503 29.5737C46.6602 29.5737 43.7112 15.6639 43.2573 12.9323H39.8955Z" fill="#FFFBFB"/>
<path d="M108.214 43.9039L105.608 40.3008L92.1371 55.431L95.0442 58.6964L108.214 43.9039Z" fill="#FFFBFB"/>
<path d="M25.4911 58.264L28.4385 54.9534L15.2414 40.147L12.7328 43.9039L25.4911 58.264Z" fill="#FFFBFB"/>
<path d="M89.2824 52.2247L92.1358 55.4294L92.1371 55.431L105.608 40.3008L86.8132 14.3191C85.6684 12.9181 84.9417 12.5074 83.5207 12.4699H76.1126C76.1126 12.4699 76.0928 12.6348 76.0433 12.9323H78.9934C78.9934 19.404 74.8779 32.8096 59.6503 32.8096C44.4227 32.8096 39.8955 19.404 39.8955 12.9323H43.2573C43.2079 12.6348 43.188 12.4699 43.188 12.4699H35.7801C34.0933 12.6846 33.3603 13.0827 32.4875 14.3191L15.2414 40.147L28.4385 54.9534L31.6644 51.33V51.3001V36.5077H32.4875V51.3001V85.1315V88.3955V89.284V89.6988L44.0111 109.545H49.7729L49.7721 109.445L49.7721 109.442C49.77 109.164 49.7679 108.891 49.7729 108.621C49.9526 99.095 54.0914 94.753 60.4734 94.753C66.8719 94.753 70.9488 98.2446 71.1739 108.621C71.1805 108.923 71.1739 109.231 71.1739 109.545H76.9357L88.2947 90.1303L88.2973 89.296L88.2999 88.4337L88.3103 85.0627C88.6339 85.0505 88.958 85.0448 89.2824 85.0454V53.6672V52.2247Z" fill="#FFFBFB"/>
<path d="M89.2824 52.2247V36.5077M89.2824 52.2247L92.1371 55.431M89.2824 52.2247V53.6672M89.2824 52.2247L92.1358 55.4294L92.1371 55.431M92.1371 55.431L95.0442 58.6964L108.214 43.9039L105.608 40.3008M92.1371 55.431L105.608 40.3008M89.2824 53.6672V85.0454M89.2824 53.6672L95.0442 60.1389L109.498 43.9039L86.813 12.9323C85.7617 11.7004 84.9887 11.6141 83.036 11.5454H76.1126H42.7765H36.1915C34.1498 11.557 33.2211 11.9166 32.0759 13.3945L11.498 43.904L25.4911 59.1587L32.4875 51.3001M44.0111 109.545C44.0111 109.545 47.5228 109.545 49.7729 109.545M44.0111 109.545H49.7729M44.0111 109.545L32.4875 89.6988M49.7729 109.545C50.0944 109.545 50.5961 109.545 50.5961 109.545M49.7729 109.545H50.5961M49.7729 109.545L49.7721 109.445M49.7729 109.545C49.7727 109.512 49.7725 109.479 49.7721 109.445M32.4875 89.6988L31.6644 88.2813M32.4875 89.6988V89.284M43.188 12.4699H76.1126M43.188 12.4699H44.0111M43.188 12.4699H35.7801C34.0933 12.6846 33.3603 13.0827 32.4875 14.3191L15.2414 40.147M43.188 12.4699C43.188 12.4699 43.2079 12.6348 43.2573 12.9323M76.1126 12.4699H75.2895M76.1126 12.4699H83.5207C84.9417 12.5074 85.6684 12.9181 86.8132 14.3191L105.608 40.3008M76.1126 12.4699C76.1126 12.4699 76.0928 12.6348 76.0433 12.9323M44.0111 12.4699H75.2895M44.0111 12.4699C44.0111 12.4699 44.0364 12.6352 44.0953 12.9323M15.2414 40.147L15.2021 40.103M15.2414 40.147L12.7328 43.9039L25.4911 58.264L28.4385 54.9534M15.2414 40.147L28.4385 54.9534M75.2895 12.4699C75.2895 12.4699 75.2643 12.6352 75.2053 12.9323M89.2824 85.0454V88.2813M89.2824 85.0454C88.958 85.0448 88.6339 85.0505 88.3103 85.0627M89.2824 85.0454L88.3103 85.0627M89.2824 88.2813L88.2947 90.1303M89.2824 88.2813C88.9517 88.3292 88.6242 88.3801 88.2999 88.4337M89.2824 88.2813L88.2999 88.4337M88.3103 85.0627C79.5164 85.3928 71.0863 90.4092 68.7046 97.9888M88.3103 85.0627L88.4096 52.6869L88.4593 36.5077M88.3103 85.0627L88.2999 88.4337M50.5961 109.545H60.4734H70.3508M50.5961 109.545H70.3508M50.5961 109.545C50.5961 109.545 50.5664 109.201 50.5576 108.621M50.5961 109.545L50.5576 108.621M49.7721 109.445L49.7721 109.442M71.1739 109.545H76.9357L88.2947 90.1303M71.1739 109.545H70.3508M71.1739 109.545C71.1739 109.231 71.1805 108.923 71.1739 108.621M71.1739 109.545V108.621M88.2947 90.1303L88.2973 89.296M70.3508 109.545C70.3508 109.545 70.3804 109.201 70.3892 108.621M70.3508 109.545L70.3892 108.621M71.1739 108.621C70.9488 98.2446 66.8719 94.753 60.4734 94.753C54.0914 94.753 49.9526 99.095 49.7729 108.621M71.1739 108.621H49.7729M71.1739 108.621H70.3892M50.5576 108.621H49.7729M50.5576 108.621C50.5097 105.451 51.0822 95.2152 60.4734 95.2152C69.8647 95.2152 70.4371 105.451 70.3892 108.621M50.5576 108.621H70.3892M50.5576 108.621H60.4734H70.3892M50.464 102.611C46.16 93.678 41.9722 90.6935 32.4875 89.284M32.4875 89.284C32.3083 89.2574 32.127 89.2313 31.944 89.2058L32.4875 89.284ZM32.4875 89.284V88.3955M31.6644 88.2813V51.33M31.6644 88.2813C31.9431 88.3184 32.2175 88.3564 32.4875 88.3955M31.6644 88.2813L32.4875 88.3955M31.6644 51.33V51.3001V36.5077H32.4875V51.3001M31.6644 51.33L32.4875 51.3001M31.6644 51.33L28.4385 54.9534M32.4875 88.3955C42.4699 89.8402 46.6216 92.6672 50.5961 101.225M32.4875 88.3955V85.1315M32.4875 85.1315C32.2172 85.1014 31.9429 85.0728 31.6644 85.0454L32.4875 85.1315ZM32.4875 85.1315C44.3939 86.4542 48.4633 90.3898 52.6538 97.9888M32.4875 85.1315V51.3001M88.2973 89.296C88.5551 89.2627 88.8129 89.2327 89.0703 89.2058L88.2973 89.296ZM88.2973 89.296C80.6428 90.2844 72.9392 94.1146 70.5502 102.611M88.2973 89.296L88.2999 88.4337M88.2999 88.4337C79.26 89.9291 72.7346 93.6383 70.3508 101.225M49.7729 108.621C49.7679 108.891 49.77 109.164 49.7721 109.442M49.7729 108.621L49.7721 109.442M58.8271 103.074C58.004 102.149 58.1996 100.198 58.8271 99.3757C59.0207 99.122 59.2845 98.9378 59.5832 98.8213M58.8271 103.074L59.5832 98.8213M58.8271 103.074L59.4024 99.838M58.8271 103.074C59.4514 103.775 59.8389 102.083 60.1693 101.225M58.8271 103.074L60.1693 101.225M59.5832 98.8213C60.4139 98.4968 61.5141 98.6955 62.1196 99.3757C62.2282 99.4976 62.2867 99.6116 62.3054 99.7176M59.5832 98.8213L62.3054 99.7176M59.5832 98.8213L59.4024 99.838M59.4024 99.838L62.3054 99.7176M59.4024 99.838L60.1693 101.225M60.1693 101.225C60.2745 100.951 60.3739 100.762 60.4734 100.762C60.5604 100.762 60.7209 100.742 60.9123 100.7M60.1693 101.225L60.9123 100.7M62.3054 99.7176C62.3983 100.244 61.5067 100.572 60.9123 100.7M62.3054 99.7176L60.9123 100.7M76.0433 12.9323H78.9934C78.9934 19.404 74.8779 32.8096 59.6503 32.8096C44.4227 32.8096 39.8955 19.404 39.8955 12.9323H43.2573M76.0433 12.9323C75.5895 15.6639 72.6404 29.5737 59.6503 29.5737C46.6602 29.5737 43.7112 15.6639 43.2573 12.9323M76.0433 12.9323H75.2053M43.2573 12.9323H44.0953M44.0953 12.9323C44.6195 15.5749 47.8115 28.6492 59.6503 28.6492C71.4892 28.6492 74.6811 15.5749 75.2053 12.9323M44.0953 12.9323H75.2053" stroke="#FB852F" stroke-width="1.2"/>
</svg>
