<svg width="17" height="17" viewBox="0 0 17 17" fill="none" xmlns="http://www.w3.org/2000/svg">
<circle cx="8.88086" cy="8.125" r="7.75" fill="#4E4E4E" stroke="#FB852F" stroke-width="0.5"/>
<path fill-rule="evenodd" clip-rule="evenodd" d="M7.61295 14.2571H8.87772H10.1425C10.1486 13.8527 10.0756 12.5472 8.87772 12.5472C7.67986 12.5472 7.60684 13.8527 7.61295 14.2571ZM8.66773 13.5495C8.56274 13.4316 8.58769 13.1827 8.66773 13.0778C8.69243 13.0455 8.72607 13.022 8.76416 13.0071C8.87013 12.9657 9.01046 12.9911 9.08769 13.0778C9.10155 13.0934 9.109 13.1079 9.11138 13.1215C9.12323 13.1887 9.00952 13.2305 8.9337 13.2468L8.83893 13.3137C8.79678 13.4232 8.74736 13.6389 8.66773 13.5495Z" fill="#FFFBFB"/>
<path d="M6.78867 2.05189C6.85554 2.38896 7.26267 4.0566 8.77273 4.0566C10.2828 4.0566 10.6899 2.38896 10.7568 2.05189H6.78867Z" fill="#FFFBFB"/>
<path d="M6.68178 2.05189C6.73968 2.40032 7.11583 4.17453 8.77273 4.17453C10.4296 4.17453 10.8058 2.40032 10.8637 2.05189H10.7568C10.6899 2.38896 10.2828 4.0566 8.77273 4.0566C7.26267 4.0566 6.85554 2.38896 6.78867 2.05189H6.68178Z" fill="#FFFBFB"/>
<path d="M6.25298 2.05189C6.25298 2.87737 6.83043 4.58726 8.77273 4.58726C10.715 4.58726 11.24 2.87737 11.24 2.05189H10.8637C10.8058 2.40032 10.4296 4.17453 8.77273 4.17453C7.11583 4.17453 6.73968 2.40032 6.68178 2.05189H6.25298Z" fill="#FFFBFB"/>
<path d="M14.9671 6.00236L14.6347 5.54278L12.9165 7.47265L13.2873 7.88915L14.9671 6.00236Z" fill="#FFFBFB"/>
<path d="M4.41568 7.834L4.79163 7.41173L3.10832 5.52316L2.78835 6.00236L4.41568 7.834Z" fill="#FFFBFB"/>
<path d="M12.5523 7.06368L12.9163 7.47245L12.9165 7.47265L14.6347 5.54278L12.2374 2.22878C12.0914 2.05009 11.9987 1.9977 11.8174 1.99292H10.8725C10.8725 1.99292 10.87 2.01396 10.8637 2.05189H11.24C11.24 2.87737 10.715 4.58726 8.77273 4.58726C6.83043 4.58726 6.25298 2.87737 6.25298 2.05189H6.68178C6.67548 2.01396 6.67295 1.99292 6.67295 1.99292H5.72806C5.5129 2.0203 5.41941 2.07108 5.30808 2.22878L3.10832 5.52316L4.79163 7.41173L5.2031 6.94956V6.94575V5.05896H5.30809V6.94575V11.261V11.6773V11.7906V11.8435L6.77794 14.375H7.51286L7.51276 14.3621L7.51275 14.3618C7.51248 14.3264 7.51221 14.2915 7.51286 14.2571C7.53578 13.042 8.06369 12.4882 8.87772 12.4882C9.69385 12.4882 10.2139 12.9336 10.2426 14.2571C10.2434 14.2956 10.2426 14.3349 10.2426 14.375H10.9775L12.4264 11.8986L12.4267 11.7922L12.427 11.6822L12.4283 11.2522C12.4696 11.2506 12.511 11.2499 12.5523 11.25V7.24768V7.06368Z" fill="#FFFBFB"/>
<path d="M12.5523 7.06368V5.05896M12.5523 7.06368L12.9165 7.47265M12.5523 7.06368V7.24768M12.5523 7.06368L12.9163 7.47245L12.9165 7.47265M12.9165 7.47265L13.2873 7.88915L14.9671 6.00236L14.6347 5.54278M12.9165 7.47265L14.6347 5.54278M12.5523 7.24768V11.25M12.5523 7.24768L13.2873 8.07315L15.1309 6.00236L12.2374 2.05189C12.1033 1.89477 12.0047 1.88376 11.7556 1.875H10.8725H6.62046H5.78053C5.52012 1.87647 5.40166 1.92235 5.25559 2.11086L2.63086 6.00237L4.41568 7.94813L5.30809 6.94575M6.77794 14.375C6.77794 14.375 7.22585 14.375 7.51286 14.375M6.77794 14.375H7.51286M6.77794 14.375L5.30809 11.8435M7.51286 14.375C7.55386 14.375 7.61785 14.375 7.61785 14.375M7.51286 14.375H7.61785M7.51286 14.375L7.51276 14.3621M7.51286 14.375C7.51283 14.3708 7.5128 14.3665 7.51276 14.3621M5.30809 11.8435L5.2031 11.6627M5.30809 11.8435V11.7906M6.67295 1.99292H10.8725M6.67295 1.99292H6.77794M6.67295 1.99292H5.72806C5.5129 2.0203 5.41941 2.07108 5.30808 2.22878L3.10832 5.52316M6.67295 1.99292C6.67295 1.99292 6.67548 2.01396 6.68178 2.05189M10.8725 1.99292H10.7675M10.8725 1.99292H11.8174C11.9987 1.9977 12.0914 2.05009 12.2374 2.22878L14.6347 5.54278M10.8725 1.99292C10.8725 1.99292 10.87 2.01396 10.8637 2.05189M6.77794 1.99292H10.7675M6.77794 1.99292C6.77794 1.99292 6.78116 2.014 6.78867 2.05189M3.10832 5.52316L3.10332 5.51755M3.10832 5.52316L2.78835 6.00236L4.41568 7.834L4.79163 7.41173M3.10832 5.52316L4.79163 7.41173M10.7675 1.99292C10.7675 1.99292 10.7643 2.014 10.7568 2.05189M12.5523 11.25V11.6627M12.5523 11.25C12.511 11.2499 12.4696 11.2506 12.4283 11.2522M12.5523 11.25L12.4283 11.2522M12.5523 11.6627L12.4264 11.8986M12.5523 11.6627C12.5102 11.6689 12.4684 11.6753 12.427 11.6822M12.5523 11.6627L12.427 11.6822M12.4283 11.2522C11.3067 11.2943 10.2314 11.9342 9.92761 12.9009M12.4283 11.2522L12.441 7.12264L12.4473 5.05896M12.4283 11.2522L12.427 11.6822M7.61785 14.375H8.87772H10.1376M7.61785 14.375H10.1376M7.61785 14.375C7.61785 14.375 7.61407 14.3311 7.61295 14.2571M7.61785 14.375L7.61295 14.2571M7.51276 14.3621L7.51275 14.3618M10.2426 14.375H10.9775L12.4264 11.8986M10.2426 14.375H10.1376M10.2426 14.375C10.2426 14.3349 10.2434 14.2956 10.2426 14.2571M10.2426 14.375V14.2571M12.4264 11.8986L12.4267 11.7922M10.1376 14.375C10.1376 14.375 10.1414 14.3311 10.1425 14.2571M10.1376 14.375L10.1425 14.2571M10.2426 14.2571C10.2139 12.9336 9.69385 12.4882 8.87772 12.4882C8.06369 12.4882 7.53578 13.042 7.51286 14.2571M10.2426 14.2571H7.51286M10.2426 14.2571H10.1425M7.61295 14.2571H7.51286M7.61295 14.2571C7.60684 13.8527 7.67986 12.5472 8.87772 12.5472C10.0756 12.5472 10.1486 13.8527 10.1425 14.2571M7.61295 14.2571H10.1425M7.61295 14.2571H8.87772H10.1425M7.60101 13.4906C7.05202 12.3511 6.51787 11.9704 5.30809 11.7906M5.30809 11.7906C5.28522 11.7872 5.26211 11.7839 5.23876 11.7807L5.30809 11.7906ZM5.30809 11.7906V11.6773M5.2031 11.6627V6.94956M5.2031 11.6627C5.23865 11.6675 5.27364 11.6723 5.30809 11.6773M5.2031 11.6627L5.30809 11.6773M5.2031 6.94956V6.94575V5.05896H5.30809V6.94575M5.2031 6.94956L5.30809 6.94575M5.2031 6.94956L4.79163 7.41173M5.30809 11.6773C6.58135 11.8616 7.1109 12.2222 7.61785 13.3137M5.30809 11.6773V11.261M5.30809 11.261C5.27361 11.2571 5.23862 11.2535 5.2031 11.25L5.30809 11.261ZM5.30809 11.261C6.82676 11.4297 7.34581 11.9317 7.88032 12.9009M5.30809 11.261V6.94575M12.4267 11.7922C12.4596 11.7879 12.4924 11.7841 12.5253 11.7807L12.4267 11.7922ZM12.4267 11.7922C11.4503 11.9182 10.4677 12.4068 10.163 13.4906M12.4267 11.7922L12.427 11.6822M12.427 11.6822C11.274 11.8729 10.4416 12.346 10.1376 13.3137M7.51286 14.2571C7.51221 14.2915 7.51248 14.3264 7.51275 14.3618M7.51286 14.2571L7.51275 14.3618M8.66773 13.5495C8.56274 13.4316 8.58769 13.1827 8.66773 13.0778C8.69243 13.0455 8.72607 13.022 8.76416 13.0071M8.66773 13.5495L8.76416 13.0071M8.66773 13.5495L8.74111 13.1368M8.66773 13.5495C8.74736 13.6389 8.79678 13.4232 8.83893 13.3137M8.66773 13.5495L8.83893 13.3137M8.76416 13.0071C8.87013 12.9657 9.01046 12.9911 9.08769 13.0778C9.10155 13.0934 9.109 13.1079 9.11138 13.1215M8.76416 13.0071L9.11138 13.1215M8.76416 13.0071L8.74111 13.1368M8.74111 13.1368L9.11138 13.1215M8.74111 13.1368L8.83893 13.3137M8.83893 13.3137C8.85234 13.2788 8.86503 13.2547 8.87771 13.2547C8.88881 13.2547 8.90929 13.2521 8.9337 13.2468M8.83893 13.3137L8.9337 13.2468M9.11138 13.1215C9.12323 13.1887 9.00952 13.2305 8.9337 13.2468M9.11138 13.1215L8.9337 13.2468M10.8637 2.05189H11.24C11.24 2.87737 10.715 4.58726 8.77273 4.58726C6.83043 4.58726 6.25298 2.87737 6.25298 2.05189H6.68178M10.8637 2.05189C10.8058 2.40032 10.4296 4.17453 8.77273 4.17453C7.11583 4.17453 6.73968 2.40032 6.68178 2.05189M10.8637 2.05189H10.7568M6.68178 2.05189H6.78867M6.78867 2.05189C6.85554 2.38896 7.26267 4.0566 8.77273 4.0566C10.2828 4.0566 10.6899 2.38896 10.7568 2.05189M6.78867 2.05189H10.7568" stroke="#FB852F" stroke-width="0.2"/>
</svg>
