<svg width="33" height="33" viewBox="0 0 33 33" fill="none" xmlns="http://www.w3.org/2000/svg">
<circle cx="16.8809" cy="16.7451" r="15.5" fill="#4E4E4E" stroke="#FB852F"/>
<path fill-rule="evenodd" clip-rule="evenodd" d="M14.2943 29.2546H16.8745H19.4546C19.467 28.4297 19.3181 25.7663 16.8745 25.7663C14.4308 25.7663 14.2819 28.4297 14.2943 29.2546ZM16.4461 27.8112C16.2319 27.5706 16.2828 27.0629 16.4461 26.8489C16.4965 26.7829 16.5651 26.735 16.6428 26.7046C16.859 26.6202 17.1452 26.6719 17.3028 26.8489C17.3311 26.8806 17.3463 26.9103 17.3511 26.9379C17.3753 27.075 17.1433 27.1602 16.9886 27.1936L16.7953 27.33C16.7093 27.5534 16.6085 27.9935 16.4461 27.8112Z" fill="#FFFBFB"/>
<path d="M12.6128 4.35598C12.7492 5.0436 13.5798 8.44559 16.6603 8.44559C19.7408 8.44559 20.5713 5.0436 20.7078 4.35598H12.6128Z" fill="#FFFBFB"/>
<path d="M12.3947 4.35598C12.5128 5.06677 13.2802 8.68615 16.6603 8.68615C20.0404 8.68615 20.8077 5.06677 20.9258 4.35598H20.7078C20.5713 5.0436 19.7408 8.44559 16.6603 8.44559C13.5798 8.44559 12.7492 5.0436 12.6128 4.35598H12.3947Z" fill="#FFFBFB"/>
<path d="M11.52 4.35598C11.52 6.03994 12.698 9.52814 16.6603 9.52814C20.6226 9.52814 21.6934 6.03994 21.6934 4.35598H20.9258C20.8077 5.06677 20.0404 8.68615 16.6603 8.68615C13.2802 8.68615 12.5128 5.06677 12.3947 4.35598H11.52Z" fill="#FFFBFB"/>
<path d="M29.2967 12.4149L28.6187 11.4774L25.1135 15.4143L25.8699 16.264L29.2967 12.4149Z" fill="#FFFBFB"/>
<path d="M7.7719 16.1515L8.53883 15.2901L5.10488 11.4374L4.45214 12.4149L7.7719 16.1515Z" fill="#FFFBFB"/>
<path d="M24.3707 14.58L25.1131 15.4139L25.1135 15.4143L28.6187 11.4774L23.7282 4.71683C23.4303 4.35231 23.2412 4.24542 22.8715 4.23568H20.9438C20.9438 4.23568 20.9387 4.27859 20.9258 4.35598H21.6934C21.6934 6.03994 20.6226 9.52814 16.6603 9.52814C12.698 9.52814 11.52 6.03994 11.52 4.35598H12.3947C12.3819 4.27859 12.3767 4.23568 12.3767 4.23568H10.4491C10.0102 4.29153 9.81951 4.39511 9.59239 4.71683L5.10488 11.4374L8.53883 15.2901L9.37824 14.3472V14.3395V10.4904H9.59241V14.3395V23.1425V23.9918V24.223V24.331L12.5909 29.4951H14.0901L14.0899 29.4689L14.0899 29.4681C14.0894 29.396 14.0888 29.3248 14.0901 29.2546C14.1369 26.7759 15.2138 25.6461 16.8745 25.6461C18.5394 25.6461 19.6002 26.5546 19.6588 29.2546C19.6605 29.3332 19.6588 29.4133 19.6588 29.4951H21.158L24.1137 24.4432L24.1143 24.2261L24.115 24.0018L24.1177 23.1246C24.2019 23.1214 24.2863 23.1199 24.3707 23.1201V14.9554V14.58Z" fill="#FFFBFB"/>
<path d="M24.3707 14.58V10.4904M24.3707 14.58L25.1135 15.4143M24.3707 14.58V14.9554M24.3707 14.58L25.1131 15.4139L25.1135 15.4143M25.1135 15.4143L25.8699 16.264L29.2967 12.4149L28.6187 11.4774M25.1135 15.4143L28.6187 11.4774M24.3707 14.9554V23.1201M24.3707 14.9554L25.8699 16.6393L29.6309 12.4149L23.7281 4.35598C23.4546 4.03546 23.2534 4.01298 22.7453 3.99512H20.9438H12.2696H10.5562C10.0249 3.99812 9.78329 4.09171 9.4853 4.47626L4.13086 12.415L7.7719 16.3843L9.59241 14.3395M12.5909 29.4951C12.5909 29.4951 13.5046 29.4951 14.0901 29.4951M12.5909 29.4951H14.0901M12.5909 29.4951L9.59241 24.331M14.0901 29.4951C14.1738 29.4951 14.3043 29.4951 14.3043 29.4951M14.0901 29.4951H14.3043M14.0901 29.4951L14.0899 29.4689M14.0901 29.4951C14.0901 29.4865 14.09 29.4778 14.0899 29.4689M9.59241 24.331L9.37824 23.9621M9.59241 24.331V24.223M12.3767 4.23568H20.9438M12.3767 4.23568H12.5909M12.3767 4.23568H10.4491C10.0102 4.29153 9.81951 4.39511 9.59239 4.71683L5.10488 11.4374M12.3767 4.23568C12.3767 4.23568 12.3819 4.27859 12.3947 4.35598M20.9438 4.23568H20.7297M20.9438 4.23568H22.8715C23.2412 4.24542 23.4303 4.35231 23.7282 4.71683L28.6187 11.4774M20.9438 4.23568C20.9438 4.23568 20.9387 4.27859 20.9258 4.35598M12.5909 4.23568H20.7297M12.5909 4.23568C12.5909 4.23568 12.5975 4.27868 12.6128 4.35598M5.10488 11.4374L5.09468 11.4259M5.10488 11.4374L4.45214 12.4149L7.7719 16.1515L8.53883 15.2901M5.10488 11.4374L8.53883 15.2901M20.7297 4.23568C20.7297 4.23568 20.7231 4.27868 20.7078 4.35598M24.3707 23.1201V23.9621M24.3707 23.1201C24.2863 23.1199 24.2019 23.1214 24.1177 23.1246M24.3707 23.1201L24.1177 23.1246M24.3707 23.9621L24.1137 24.4432M24.3707 23.9621C24.2846 23.9746 24.1994 23.9878 24.115 24.0018M24.3707 23.9621L24.115 24.0018M24.1177 23.1246C21.8295 23.2105 19.636 24.5158 19.0162 26.488M24.1177 23.1246L24.1436 14.7003L24.1565 10.4904M24.1177 23.1246L24.115 24.0018M14.3043 29.4951H16.8745H19.4446M14.3043 29.4951H19.4446M14.3043 29.4951C14.3043 29.4951 14.2966 29.4056 14.2943 29.2546M14.3043 29.4951L14.2943 29.2546M14.0899 29.4689L14.0899 29.4681M19.6588 29.4951H21.158L24.1137 24.4432M19.6588 29.4951H19.4446M19.6588 29.4951C19.6588 29.4133 19.6605 29.3332 19.6588 29.2546M19.6588 29.4951V29.2546M24.1137 24.4432L24.1143 24.2261M19.4446 29.4951C19.4446 29.4951 19.4523 29.4056 19.4546 29.2546M19.4446 29.4951L19.4546 29.2546M19.6588 29.2546C19.6002 26.5546 18.5394 25.6461 16.8745 25.6461C15.2138 25.6461 14.1369 26.7759 14.0901 29.2546M19.6588 29.2546H14.0901M19.6588 29.2546H19.4546M14.2943 29.2546H14.0901M14.2943 29.2546C14.2819 28.4297 14.4308 25.7663 16.8745 25.7663C19.3181 25.7663 19.467 28.4297 19.4546 29.2546M14.2943 29.2546H19.4546M14.2943 29.2546H16.8745H19.4546M14.27 27.6909C13.15 25.3664 12.0604 24.5898 9.59241 24.223M9.59241 24.223C9.54576 24.2161 9.4986 24.2093 9.45097 24.2027L9.59241 24.223ZM9.59241 24.223V23.9918M9.37824 23.9621V14.3472M9.37824 23.9621C9.45076 23.9718 9.52214 23.9817 9.59241 23.9918M9.37824 23.9621L9.59241 23.9918M9.37824 14.3472V14.3395V10.4904H9.59241V14.3395M9.37824 14.3472L9.59241 14.3395M9.37824 14.3472L8.53883 15.2901M9.59241 23.9918C12.1899 24.3677 13.2701 25.1033 14.3043 27.33M9.59241 23.9918V23.1425M9.59241 23.1425C9.52208 23.1347 9.45069 23.1272 9.37824 23.1201L9.59241 23.1425ZM9.59241 23.1425C12.6905 23.4867 13.7494 24.5108 14.8398 26.488M9.59241 23.1425V14.3395M24.1143 24.2261C24.1814 24.2175 24.2485 24.2097 24.3155 24.2027L24.1143 24.2261ZM24.1143 24.2261C22.1226 24.4833 20.1181 25.4799 19.4965 27.6909M24.1143 24.2261L24.115 24.0018M24.115 24.0018C21.7628 24.3909 20.0649 25.356 19.4446 27.33M14.0901 29.2546C14.0888 29.3248 14.0894 29.396 14.0899 29.4681M14.0901 29.2546L14.0899 29.4681M16.4461 27.8112C16.2319 27.5706 16.2828 27.0629 16.4461 26.8489C16.4965 26.7829 16.5651 26.735 16.6428 26.7046M16.4461 27.8112L16.6428 26.7046M16.4461 27.8112L16.5958 26.9692M16.4461 27.8112C16.6085 27.9935 16.7093 27.5534 16.7953 27.33M16.4461 27.8112L16.7953 27.33M16.6428 26.7046C16.859 26.6202 17.1452 26.6719 17.3028 26.8489C17.3311 26.8806 17.3463 26.9103 17.3511 26.9379M16.6428 26.7046L17.3511 26.9379M16.6428 26.7046L16.5958 26.9692M16.5958 26.9692L17.3511 26.9379M16.5958 26.9692L16.7953 27.33M16.7953 27.33C16.8227 27.2589 16.8486 27.2098 16.8744 27.2098C16.8971 27.2098 16.9389 27.2044 16.9886 27.1936M16.7953 27.33L16.9886 27.1936M17.3511 26.9379C17.3753 27.075 17.1433 27.1602 16.9886 27.1936M17.3511 26.9379L16.9886 27.1936M20.9258 4.35598H21.6934C21.6934 6.03994 20.6226 9.52814 16.6603 9.52814C12.698 9.52814 11.52 6.03994 11.52 4.35598H12.3947M20.9258 4.35598C20.8077 5.06677 20.0404 8.68615 16.6603 8.68615C13.2802 8.68615 12.5128 5.06677 12.3947 4.35598M20.9258 4.35598H20.7078M12.3947 4.35598H12.6128M12.6128 4.35598C12.7492 5.0436 13.5798 8.44559 16.6603 8.44559C19.7408 8.44559 20.5713 5.0436 20.7078 4.35598M12.6128 4.35598H20.7078" stroke="#FB852F" stroke-width="0.5"/>
</svg>
