<svg width="50" height="50" viewBox="0 0 50 50" fill="none" xmlns="http://www.w3.org/2000/svg">
<path d="M37.1875 25.3906L15.8593 28.5156C15.2343 28.5937 14.7656 29.2187 14.8828 29.8437C14.9609 30.4297 15.4687 30.8594 16.0547 30.8594C16.0937 30.8594 16.1718 30.8594 16.2109 30.8594L37.539 27.7344C41.2109 27.1875 44.1015 24.5312 44.9609 20.9375L47.6562 9.68748C47.7343 9.33591 47.6562 8.98435 47.4218 8.67185C47.1875 8.39842 46.875 8.24217 46.4843 8.24217H8.3984C7.34372 3.39842 4.41403 0.781228 4.29684 0.66404C3.78903 0.273415 3.04684 0.312478 2.65622 0.781228C2.22653 1.28904 2.26559 2.03123 2.73434 2.42185C2.7734 2.46092 5.54684 4.96091 6.24997 9.53123L9.6484 31.9922C10.039 34.4922 12.1484 36.3281 14.6875 36.3281H37.8906C38.5547 36.3281 39.0625 35.8203 39.0625 35.1562C39.0625 34.4922 38.5547 33.9844 37.8906 33.9844H14.6875C13.3203 33.9844 12.1875 33.0078 11.9922 31.6406L8.78903 10.5469H45L42.6562 20.3515C42.0312 23.0078 39.8828 25 37.1875 25.3906ZM12.1093 44.5312C12.1093 47.3437 14.375 49.6094 17.1875 49.6094C20 49.6094 22.2656 47.3437 22.2656 44.5312C22.2656 41.7187 20 39.4531 17.1875 39.4531C14.375 39.4531 12.1093 41.7187 12.1093 44.5312ZM19.9218 44.5312C19.9218 46.0547 18.7109 47.2656 17.1875 47.2656C15.664 47.2656 14.4531 46.0547 14.4531 44.5312C14.4531 43.0078 15.664 41.7969 17.1875 41.7969C18.7109 41.7969 19.9218 43.0078 19.9218 44.5312ZM33.9843 39.4531C31.1718 39.4531 28.9062 41.7187 28.9062 44.5312C28.9062 47.3437 31.1718 49.6094 33.9843 49.6094C36.7968 49.6094 39.0625 47.3437 39.0625 44.5312C39.0625 41.7187 36.7968 39.4531 33.9843 39.4531ZM33.9843 47.2656C32.4609 47.2656 31.25 46.0547 31.25 44.5312C31.25 43.0078 32.4609 41.7969 33.9843 41.7969C35.5078 41.7969 36.7187 43.0078 36.7187 44.5312C36.7187 46.0547 35.5078 47.2656 33.9843 47.2656Z" fill="#5B5B5B"/>
</svg>
