<svg width="50" height="50" viewBox="0 0 50 50" fill="none" xmlns="http://www.w3.org/2000/svg">
<path d="M8.59375 6.25C6.875 6.25 5.46875 7.65625 5.46875 9.375V40.625C5.46875 42.3438 6.875 43.75 8.59375 43.75H31.25C31.9141 43.75 32.4219 43.2422 32.4219 42.5781C32.4219 41.9141 31.9141 41.4062 31.25 41.4062H8.59375C8.16406 41.4062 7.8125 41.0547 7.8125 40.625V9.375C7.8125 8.94531 8.16406 8.59375 8.59375 8.59375H16.0156C16.6797 8.59375 17.1875 8.08594 17.1875 7.42188C17.1875 6.75781 16.6797 6.25 16.0156 6.25H8.59375ZM21.0937 6.25C20.4297 6.25 19.9219 6.75781 19.9219 7.42188V14.8438C19.9219 15.5078 20.4297 16.0156 21.0937 16.0156H27.3437C28.0078 16.0156 28.5156 15.5078 28.5156 14.8438V8.59375H39.8437C40.2734 8.59375 40.625 8.94531 40.625 9.375V24.2188C40.625 24.8828 41.1328 25.3906 41.7969 25.3906C42.4609 25.3906 42.9687 24.8828 42.9687 24.2188V9.375C42.9687 7.65625 41.5625 6.25 39.8437 6.25H21.0937ZM41.6618 28.1456C41.3843 28.15 41.1035 28.1686 40.8203 28.2028C37.2266 28.6325 34.375 31.5625 33.9844 35.1562C33.5156 39.9609 37.383 43.9842 42.1486 43.7889C46.0548 43.5936 49.258 40.4684 49.5705 36.6013C49.6876 35.1169 49.4141 33.7503 48.8281 32.5394C48.7109 32.305 48.3597 32.2264 48.1644 32.4608C46.8753 33.9061 42.6559 38.6719 42.6559 38.6719C42.4216 38.9063 42.1094 39.0625 41.7969 39.0625H41.758C41.4064 39.0625 41.0936 38.9066 40.8592 38.5941L38.1638 35.1173C37.8122 34.6877 37.8122 34.0234 38.1638 33.5938C38.6716 33.0078 39.5316 33.0467 39.9612 33.6327L41.8358 36.055C41.8358 36.055 45.7425 31.6406 46.7972 30.4688C46.9534 30.3125 46.9138 30.0389 46.7575 29.9217C45.3903 28.7938 43.6047 28.1146 41.6618 28.1456Z" fill="#5B5B5B"/>
</svg>
