<svg width="50" height="50" viewBox="0 0 50 50" fill="none" xmlns="http://www.w3.org/2000/svg">
<path d="M8.59375 6.25C6.875 6.25 5.46875 7.65625 5.46875 9.375V40.625C5.46875 42.3438 6.875 43.75 8.59375 43.75H31.25C31.9141 43.75 32.4219 43.2422 32.4219 42.5781C32.4219 41.9141 31.9141 41.4062 31.25 41.4062H8.59375C8.16406 41.4062 7.8125 41.0547 7.8125 40.625V9.375C7.8125 8.94531 8.16406 8.59375 8.59375 8.59375H16.0156C16.6797 8.59375 17.1875 8.08594 17.1875 7.42188C17.1875 6.75781 16.6797 6.25 16.0156 6.25H8.59375ZM21.0937 6.25C20.4297 6.25 19.9219 6.75781 19.9219 7.42188V14.8438C19.9219 15.5078 20.4297 16.0156 21.0937 16.0156H27.3437C28.0078 16.0156 28.5156 15.5078 28.5156 14.8438V8.59375H39.8437C40.2734 8.59375 40.625 8.94531 40.625 9.375V24.2188C40.625 24.8828 41.1328 25.3906 41.7969 25.3906C42.4609 25.3906 42.9687 24.8828 42.9687 24.2188V9.375C42.9687 7.65625 41.5625 6.25 39.8437 6.25H21.0937Z" fill="#F15C04"/>
<path d="M40.8745 28.0582C41.1577 28.024 41.4385 28.0054 41.716 28.001C43.6589 27.97 45.4445 28.6492 46.8117 29.7771C46.968 29.8943 47.0076 30.1679 46.8514 30.3242C45.7967 31.496 41.89 35.9104 41.89 35.9104L40.0154 33.4881C39.5858 32.9021 38.7258 32.8632 38.218 33.4492C37.8664 33.8788 37.8664 34.5431 38.218 34.9727L40.9134 38.4495C41.1478 38.762 41.4606 38.9179 41.8122 38.9179H41.8511C42.1636 38.9179 42.4758 38.7617 42.7101 38.5273C42.7101 38.5273 46.9295 33.7615 48.2186 32.3162C48.4139 32.0818 48.7651 32.1604 48.8823 32.3948C49.4683 33.6057 49.7418 34.9723 49.6247 36.4567C49.3122 40.3238 46.109 43.449 42.2028 43.6443C37.4372 43.8396 33.5698 39.8163 34.0386 35.0116C34.4292 31.4179 37.2808 28.4879 40.8745 28.0582Z" fill="#1FA31C"/>
</svg>
