<svg width="50" height="50" viewBox="0 0 50 50" fill="none" xmlns="http://www.w3.org/2000/svg">
<path d="M2.34375 4.6875C1.05286 4.6875 0 5.74036 0 7.03125V39.8438C0 41.1346 1.05286 42.1875 2.34375 42.1875H22.9736L22.522 45.3461C22.4854 45.5902 22.5677 45.8344 22.7417 46.0083C22.8882 46.1548 23.0896 46.2372 23.2941 46.2372C23.3307 46.2372 23.3673 46.2341 23.4039 46.228L27.2491 45.6787L32.2388 45.1538C32.4158 45.1324 32.5836 45.0531 32.7087 44.9249L46.6461 30.9418H46.6492L48.8556 28.7354C50.3784 27.2095 50.3784 24.7314 48.8556 23.2086L45.5414 19.8944C45.0287 19.3817 44.4061 19.0582 43.75 18.8873V7.03125C43.75 5.74036 42.6971 4.6875 41.4062 4.6875H2.34375ZM2.34375 6.25H41.4062C41.8365 6.25 42.1875 6.60095 42.1875 7.03125V9.375H1.5625V7.03125C1.5625 6.60095 1.91345 6.25 2.34375 6.25ZM1.5625 10.9375H42.1875V18.808C41.394 18.9301 40.6281 19.2841 40.0177 19.8944L37.8082 22.1039C37.8052 22.1069 37.8052 22.1069 37.8052 22.11L35.437 24.4873C35.4279 24.4934 35.4156 24.4934 35.4095 24.5026C35.4004 24.5117 35.3973 24.5239 35.3882 24.5331L23.8678 36.087C23.7457 36.2122 23.6664 36.3739 23.645 36.5479L23.172 40.625H2.34375C1.91345 40.625 1.5625 40.274 1.5625 39.8438V10.9375ZM11.7188 14.0625C11.5204 14.0625 11.319 14.1388 11.1664 14.2914L8.59375 16.864L7.58362 15.8539C7.27844 15.5487 6.78406 15.5487 6.47888 15.8539C6.17371 16.1591 6.17371 16.6534 6.47888 16.9586L8.04138 18.5211C8.19397 18.6737 8.39233 18.75 8.59375 18.75C8.79517 18.75 8.99353 18.6737 9.14612 18.5211L12.2711 15.3961C12.5763 15.0909 12.5763 14.5966 12.2711 14.2914C12.1185 14.1388 11.9171 14.0625 11.7188 14.0625ZM14.8438 15.625C14.4135 15.625 14.0625 15.976 14.0625 16.4062C14.0625 16.8365 14.4135 17.1875 14.8438 17.1875H17.9688C18.399 17.1875 18.75 16.8365 18.75 16.4062C18.75 15.976 18.399 15.625 17.9688 15.625H14.8438ZM21.0938 15.625C20.6635 15.625 20.3125 15.976 20.3125 16.4062C20.3125 16.8365 20.6635 17.1875 21.0938 17.1875H33.5938C34.024 17.1875 34.375 16.8365 34.375 16.4062C34.375 15.976 34.024 15.625 33.5938 15.625H21.0938ZM11.7188 20.3125C11.5204 20.3125 11.319 20.3888 11.1664 20.5414L8.59375 23.114L7.58362 22.1039C7.27844 21.7987 6.78406 21.7987 6.47888 22.1039C6.17371 22.4091 6.17371 22.9034 6.47888 23.2086L8.04138 24.7711C8.19397 24.9237 8.39233 25 8.59375 25C8.79517 25 8.99353 24.9237 9.14612 24.7711L12.2711 21.6461C12.5763 21.3409 12.5763 20.8466 12.2711 20.5414C12.1185 20.3888 11.9171 20.3125 11.7188 20.3125ZM42.7795 20.3125C43.3807 20.3156 43.9789 20.5414 44.4366 20.9991L47.7509 24.3134C48.6633 25.2258 48.6633 26.712 47.7509 27.6276L46.0938 29.2847L39.4653 22.6562L41.1224 20.9991C41.5802 20.5414 42.1783 20.3125 42.7795 20.3125ZM14.8438 21.875C14.4135 21.875 14.0625 22.226 14.0625 22.6562C14.0625 23.0865 14.4135 23.4375 14.8438 23.4375H33.5938C34.024 23.4375 34.375 23.0865 34.375 22.6562C34.375 22.226 34.024 21.875 33.5938 21.875H14.8438ZM38.3636 23.764L44.9921 30.3925L43.6981 31.6895L37.0697 25.061L38.3636 23.764ZM35.965 26.1658L42.5934 32.7942L42.5415 32.8491C42.4561 32.9041 42.3859 32.9742 42.3309 33.0566L32.7118 42.7124L32.3578 39.2975C32.3151 38.9008 31.9794 38.5986 31.5796 38.5986H30.1514V37.4908L34.3414 33.3008C34.6466 32.9956 34.6466 32.5043 34.3414 32.1991C34.0363 31.8909 33.5419 31.8909 33.2367 32.1991L29.0802 36.3525L26.12 36.0413L35.965 26.1658ZM11.7188 26.5625C11.5204 26.5625 11.319 26.6388 11.1664 26.7914L8.59375 29.364L7.58362 28.3539C7.27844 28.0487 6.78406 28.0487 6.47888 28.3539C6.17371 28.6591 6.17371 29.1534 6.47888 29.4586L8.04138 31.0211C8.19397 31.1737 8.39233 31.25 8.59375 31.25C8.79517 31.25 8.99353 31.1737 9.14612 31.0211L12.2711 27.8961C12.5763 27.5909 12.5763 27.0966 12.2711 26.7914C12.1185 26.6388 11.9171 26.5625 11.7188 26.5625ZM14.8438 28.125C14.4135 28.125 14.0625 28.476 14.0625 28.9062C14.0625 29.3365 14.4135 29.6875 14.8438 29.6875H24.2188C24.649 29.6875 25 29.3365 25 28.9062C25 28.476 24.649 28.125 24.2188 28.125H14.8438ZM4.6875 35.9375C4.2572 35.9375 3.90625 36.2885 3.90625 36.7188V38.2812C3.90625 38.7115 4.2572 39.0625 4.6875 39.0625C5.1178 39.0625 5.46875 38.7115 5.46875 38.2812V36.7188C5.46875 36.2885 5.1178 35.9375 4.6875 35.9375ZM8.59375 35.9375C8.16345 35.9375 7.8125 36.2885 7.8125 36.7188V38.2812C7.8125 38.7115 8.16345 39.0625 8.59375 39.0625C9.02405 39.0625 9.375 38.7115 9.375 38.2812V36.7188C9.375 36.2885 9.02405 35.9375 8.59375 35.9375ZM12.5 35.9375C12.0697 35.9375 11.7188 36.2885 11.7188 36.7188V38.2812C11.7188 38.7115 12.0697 39.0625 12.5 39.0625C12.9303 39.0625 13.2812 38.7115 13.2812 38.2812V36.7188C13.2812 36.2885 12.9303 35.9375 12.5 35.9375ZM16.4062 35.9375C15.976 35.9375 15.625 36.2885 15.625 36.7188V38.2812C15.625 38.7115 15.976 39.0625 16.4062 39.0625C16.8365 39.0625 17.1875 38.7115 17.1875 38.2812V36.7188C17.1875 36.2885 16.8365 35.9375 16.4062 35.9375ZM20.3125 35.9375C19.8822 35.9375 19.5312 36.2885 19.5312 36.7188V38.2812C19.5312 38.7115 19.8822 39.0625 20.3125 39.0625C20.7428 39.0625 21.0938 38.7115 21.0938 38.2812V36.7188C21.0938 36.2885 20.7428 35.9375 20.3125 35.9375ZM25.1099 37.5092L28.5889 37.8754V39.3799C28.5889 39.8102 28.9398 40.1611 29.3701 40.1611H30.8746L31.2408 43.6859L27.4506 44.0887L24.6674 41.3055L25.1099 37.5092Z" fill="#5B5B5B"/>
</svg>
