<svg width="30" height="30" viewBox="0 0 30 30" fill="none" xmlns="http://www.w3.org/2000/svg">
<path fill-rule="evenodd" clip-rule="evenodd" d="M3.08043 2.57212C3.19423 2.52271 3.31598 2.49823 3.43861 2.5001H5.17742C6.19918 2.5001 7.10656 3.23493 7.39521 4.29502H7.397L8.54115 8.50009H26.5744C26.7167 8.50006 26.8572 8.53554 26.9848 8.60373C27.1124 8.67192 27.2238 8.771 27.3101 8.89327C27.3966 9.01553 27.4556 9.15767 27.4829 9.30865C27.5101 9.45962 27.5048 9.61536 27.4673 9.76374L25.0634 19.2891C24.7343 20.5887 23.6325 21.5 22.3847 21.5H12.2266C10.9988 21.5 9.91032 20.6194 9.56418 19.3477L5.62024 4.85947C5.56092 4.64156 5.38647 4.5001 5.17742 4.5001H3.43861C3.31598 4.50197 3.19423 4.47749 3.08043 4.42808C2.96663 4.37866 2.86306 4.3053 2.77573 4.21225C2.68839 4.11921 2.61905 4.00835 2.57171 3.88609C2.52438 3.76383 2.5 3.63262 2.5 3.5001C2.5 3.36758 2.52438 3.23637 2.57171 3.11411C2.61905 2.99186 2.68839 2.88099 2.77573 2.78794C2.86306 2.6949 2.96663 2.62154 3.08043 2.57212ZM11.3842 24.0858C11.7313 23.7107 12.2021 23.5 12.6929 23.5C13.1838 23.5 13.6545 23.7107 14.0017 24.0858C14.3488 24.461 14.5438 24.9695 14.5438 25.5C14.5438 26.0305 14.3488 26.539 14.0017 26.9142C13.6545 27.2893 13.1838 27.5 12.6929 27.5C12.2021 27.5 11.7313 27.2893 11.3842 26.9142C11.0371 26.539 10.8421 26.0305 10.8421 25.5C10.8421 24.9695 11.0371 24.461 11.3842 24.0858ZM20.6386 24.0858C20.9856 23.7107 21.4564 23.5 21.9473 23.5C22.4381 23.5 22.9089 23.7107 23.2561 24.0858C23.6031 24.461 23.7981 24.9695 23.7981 25.5C23.7981 26.0305 23.6031 26.539 23.2561 26.9142C22.9089 27.2893 22.4381 27.5 21.9473 27.5C21.4564 27.5 20.9856 27.2893 20.6386 26.9142C20.2914 26.539 20.0964 26.0305 20.0964 25.5C20.0964 24.9695 20.2914 24.461 20.6386 24.0858ZM22.9545 19.5455H17.2727H11.5909L8.98027 10.0905L25.7955 9.88637L22.9545 19.5455Z" fill="black"/>
</svg>
