<svg width="30" height="30" viewBox="0 0 30 30" fill="none" xmlns="http://www.w3.org/2000/svg">
<path d="M15 1.5C7.26769 1.5 1 6.819 1 13.38C1 17.0174 2.93128 20.2688 5.96605 22.4482C6.04353 24.1071 5.78722 26.3977 3.50511 27.4538L3.5009 27.4559C3.39894 27.4947 3.31116 27.5638 3.24919 27.6538C3.18721 27.7438 3.15397 27.8506 3.15385 27.96C3.15385 28.1032 3.21058 28.2406 3.31156 28.3418C3.41254 28.4431 3.5495 28.5 3.69231 28.5C3.70776 28.5 3.72319 28.4993 3.73858 28.4979C6.35984 28.481 8.58506 27.0604 10.1202 25.5595C10.607 25.0833 11.2856 24.8489 11.9543 24.9752C12.9343 25.1621 13.9532 25.26 15 25.26C22.7323 25.26 29 19.941 29 13.38C29 6.819 22.7323 1.5 15 1.5Z" stroke="black" stroke-width="2"/>
</svg>
