<svg width="30" height="30" viewBox="0 0 30 30" fill="none" xmlns="http://www.w3.org/2000/svg">
<path d="M14.375 1.875C7.48648 1.875 1.875 7.48648 1.875 14.375C1.875 21.2635 7.48648 26.875 14.375 26.875C21.2635 26.875 26.875 21.2635 26.875 14.375C26.875 7.48648 21.2635 1.875 14.375 1.875ZM14.375 3.79808C20.2269 3.79808 24.9519 8.52314 24.9519 14.375C24.9519 20.2269 20.2269 24.9519 14.375 24.9519C8.52314 24.9519 3.79808 20.2269 3.79808 14.375C3.79808 8.52314 8.52314 3.79808 14.375 3.79808ZM14.4877 7.64423C12.159 7.77945 10.2584 9.73257 10.2584 12.1064H12.1815C12.1815 10.5439 13.5337 9.31941 15.1863 9.60487C16.3657 9.80769 17.2972 10.9645 17.2596 12.1815C17.2296 13.2482 16.6061 13.9243 15.6896 14.3299C15.1187 14.5853 14.5778 14.8257 14.1196 15.3065C13.6614 15.7873 13.4135 16.5009 13.4135 17.2596H15.3365C15.3365 16.8239 15.3966 16.7563 15.5168 16.6286C15.6295 16.5084 15.945 16.3206 16.4633 16.0877C17.8981 15.4642 19.1301 14.0895 19.1827 12.2416C19.2503 10.0556 17.6803 8.07993 15.5093 7.70433C15.1638 7.65174 14.8182 7.62921 14.4877 7.64423ZM13.4135 19.1827V21.1058H15.3365V19.1827H13.4135Z" fill="black"/>
</svg>
