<svg width="30" height="30" viewBox="0 0 30 30" fill="none" xmlns="http://www.w3.org/2000/svg">
<path d="M14.9807 2.50042C14.8714 2.50436 14.766 2.54413 14.6796 2.6141L2.70069 12.3767C2.5917 12.4654 2.52093 12.5958 2.50395 12.739C2.48697 12.8823 2.52518 13.0267 2.61016 13.1405C2.69514 13.2544 2.81994 13.3283 2.9571 13.346C3.09426 13.3637 3.23255 13.3238 3.34154 13.2351L4.06276 12.6476V26.9488C4.06277 27.093 4.11765 27.2314 4.21532 27.3334C4.31299 27.4354 4.44545 27.4927 4.58358 27.4927H11.7876C11.8438 27.5024 11.9012 27.5024 11.9575 27.4927H18.0374C18.0937 27.5024 18.1511 27.5024 18.2073 27.4927H25.4164C25.5545 27.4927 25.687 27.4354 25.7847 27.3334C25.8823 27.2314 25.9372 27.093 25.9372 26.9488V12.6476L26.6584 13.2351C26.7124 13.279 26.7741 13.3115 26.8401 13.3305C26.9061 13.3495 26.975 13.3548 27.0429 13.346C27.1108 13.3373 27.1764 13.3146 27.2359 13.2793C27.2955 13.2441 27.3478 13.1969 27.3898 13.1406C27.4319 13.0842 27.463 13.0197 27.4812 12.9508C27.4994 12.8819 27.5045 12.8099 27.4961 12.739C27.4876 12.6681 27.4659 12.5996 27.4322 12.5374C27.3984 12.4752 27.3533 12.4206 27.2993 12.3767L23.3331 9.14478V5.19046H20.2082V6.5971L15.3204 2.6141C15.2235 2.53562 15.1032 2.49537 14.9807 2.50042V2.50042ZM15 3.73389L24.8956 11.7987V26.4048H18.6457V16.0696H11.3542V26.4048H5.1044V11.7987L15 3.73389ZM21.2498 6.27838H22.2915V8.29591L21.2498 7.44598V6.27838ZM12.3959 17.1575H17.6041V26.4048H12.3959V17.1575Z" fill="black"/>
</svg>
