<svg width="30" height="30" viewBox="0 0 30 30" fill="none" xmlns="http://www.w3.org/2000/svg">
<path d="M14.8493 6.79882C11.6032 7.37619 9.02921 8.92206 8.35712 10.7287C8.09972 11.4364 8.05682 11.8834 8.05682 13.8204V16.0927H5.45424C4.00996 16.0927 2.75157 16.1672 2.65147 16.2417C2.52277 16.372 2.47987 17.2102 2.50847 19.8363L2.55137 23.2633L10.8453 23.3191C19.7112 23.375 20.9267 23.3005 23.0431 22.4996C25.1023 21.7174 26.4608 20.6558 27.09 19.3148C27.3617 18.7374 27.4189 18.309 27.4761 16.2789C27.5619 13.0754 27.4189 11.2316 27.0185 10.4679C26.2606 8.97794 24.2872 7.71144 21.7704 7.04094C20.3547 6.68707 16.3222 6.53807 14.8493 6.79882ZM21.0125 8.36331C24.0441 8.99656 26.2606 10.5424 26.2606 11.9952C26.2606 13.2244 24.6304 14.6213 22.3424 15.3477C18.5243 16.5397 13.7768 16.1113 10.9597 14.3233C8.94341 13.0195 8.67172 11.5668 10.2018 10.2444C11.2028 9.38768 13.3478 8.49369 15.1353 8.21431C16.3079 8.02806 19.8256 8.10256 21.0125 8.36331ZM10.1446 15.4408L10.974 16.0927H10.0874H9.20081V15.4408C9.20081 15.0869 9.22941 14.7889 9.25801 14.7889C9.28661 14.7889 9.68701 15.0869 10.1446 15.4408ZM26.3607 16.372C26.3607 18.2159 26.1891 18.7933 25.4312 19.5569C25.1452 19.8363 24.9021 20.0225 24.8878 19.9853C24.8735 19.948 24.7877 19.7431 24.7019 19.5383C24.6018 19.2961 24.3873 19.1658 24.1299 19.1658C23.7438 19.1658 23.7152 19.2216 23.6723 19.9666C23.6294 20.6185 23.5579 20.8048 23.2719 20.9351C22.5569 21.289 22.4997 21.2145 22.4997 19.9108C22.4997 18.8864 22.4568 18.6815 22.1994 18.5139C21.6703 18.1228 21.37 18.7188 21.3271 20.2646L21.2842 21.587L20.8409 21.6429C20.4548 21.6988 20.3833 21.6243 20.2689 21.0841C20.1545 20.5626 20.0687 20.4695 19.7112 20.4695C19.3251 20.4695 19.2822 20.5254 19.2393 21.1586C19.1964 21.8478 19.1821 21.8664 18.6244 21.8664H18.0667V20.7675C18.0667 19.3334 17.9809 19.0726 17.4947 19.0726C17.0085 19.0726 16.9227 19.3148 16.9227 20.8606V22.0713L16.3937 22.0154C15.8932 21.9595 15.8503 21.9036 15.8074 21.3635C15.7788 20.9724 15.6501 20.6744 15.4642 20.544C15.2068 20.3578 15.1067 20.395 14.8922 20.7489C14.7492 20.9724 14.6348 21.3635 14.6348 21.6056C14.6348 21.9968 14.5633 22.0526 14.1343 22.0526H13.6338V20.7675C13.6338 19.3706 13.4622 18.9981 12.8902 19.1099C12.5899 19.1658 12.5613 19.2775 12.4898 20.5626L12.4183 21.9595L11.8892 22.0154C11.3601 22.0713 11.3458 22.0713 11.3458 21.4194C11.3458 20.842 11.0741 20.3764 10.7166 20.3764C10.5021 20.3764 10.2018 21.0469 10.2018 21.5125C10.2018 22.0526 10.1732 22.0713 9.67271 22.0154L9.12931 21.9595L9.05781 20.5626L8.98631 19.1658H8.55732H8.12832L8.05682 20.5626L7.98532 21.9595L7.45623 22.0154L6.91283 22.0713V19.8549V17.6199L13.4622 17.5268C18.6959 17.4523 20.2546 17.3778 21.2842 17.1357C23.0002 16.7259 24.2443 16.2044 25.2882 15.4594C25.7601 15.1055 26.1891 14.8262 26.2606 14.8075C26.3178 14.8075 26.3607 15.4967 26.3607 16.372ZM5.76884 19.8176V22.0713L4.66775 22.0154L3.55236 21.9595L3.50946 19.7618L3.46656 17.5827H4.62485H5.76884V19.8176Z" fill="black"/>
<path d="M15.7362 9.12709C13.248 9.70446 11.9753 11.3435 12.7618 12.9824C14.0059 15.5899 20.398 15.9252 22.3856 13.4853C22.8432 12.9079 22.929 12.6844 22.929 12.0326C22.929 10.5426 21.5991 9.44371 19.2969 9.03396C17.8955 8.77321 17.1376 8.79184 15.7362 9.12709ZM19.6544 10.5798C22.3427 11.3248 22.4571 12.5727 19.9261 13.4108C18.7821 13.7833 16.0794 13.6902 14.9926 13.2246C13.9916 12.8148 13.5197 12.2933 13.7199 11.8649C14.2633 10.6357 17.4093 9.96521 19.6544 10.5798Z" fill="black"/>
</svg>
