<svg width="30" height="30" viewBox="0 0 30 30" fill="none" xmlns="http://www.w3.org/2000/svg">
<path d="M12.4053 2.5C6.94055 2.5 2.5 6.83941 2.5 12.1797C2.5 17.52 6.94055 21.8594 12.4053 21.8594C14.5676 21.8594 16.5659 21.1788 18.1956 20.0267L25.8613 27.5L27.5 25.8986L19.9253 18.4786C21.4139 16.7838 22.3106 14.5841 22.3106 12.1797C22.3106 6.83941 17.8701 2.5 12.4053 2.5ZM12.4053 3.63879C17.2396 3.63879 21.1453 7.45552 21.1453 12.1797C21.1453 16.9039 17.2396 20.7206 12.4053 20.7206C7.57101 20.7206 3.66533 16.9039 3.66533 12.1797C3.66533 7.45552 7.57101 3.63879 12.4053 3.63879Z" fill="black"/>
</svg>
