<svg width="30" height="30" viewBox="0 0 30 30" fill="none" xmlns="http://www.w3.org/2000/svg">
<path d="M6.12103 2.86426C5.09476 2.86426 4.26353 3.96627 4.26353 5.32685V10.252L2.5175 15.3466C2.5175 16.7072 2.30852 16.773 3.33478 16.773C4.36105 16.773 5.19228 16.5378 5.19228 15.1772L7.04978 10.252H9.83603L8.90728 15.1772C8.90728 16.5378 9.73851 16.773 10.7648 16.773C11.791 16.773 12.6223 16.5378 12.6223 15.1772V10.252H17.3775V15.1772C17.3775 16.5378 18.2087 16.773 19.235 16.773C20.2612 16.773 21.0925 16.5378 21.0925 15.1772L20.1637 10.252H22.95L24.8075 15.1772C24.8075 16.5378 25.6387 16.773 26.665 16.773C27.6912 16.773 27.4826 16.7072 27.4826 15.3466L25.7362 10.252V5.32685C25.7362 3.96627 24.905 2.86426 23.8787 2.86426H6.12103ZM7.04978 5.32685C7.56245 5.32685 7.97853 5.87847 7.97853 6.55815C7.97853 7.23782 7.56245 7.78944 7.04978 7.78944C6.53711 7.78944 6.12103 7.23782 6.12103 6.55815C6.12103 5.87847 6.53711 5.32685 7.04978 5.32685ZM10.7648 5.32685C11.2774 5.32685 11.6935 5.87847 11.6935 6.55815C11.6935 7.23782 11.2774 7.78944 10.7648 7.78944C10.2521 7.78944 9.83603 7.23782 9.83603 6.55815C9.83603 5.87847 10.2521 5.32685 10.7648 5.32685ZM3.55768 18.1205V24.673C3.55768 26.0336 4.61181 27.1356 5.63808 27.1356H24.3617C25.3879 27.1356 26.4421 26.0336 26.4421 24.673V18.1205H24.3617V24.673H5.63808V18.1205H3.55768Z" fill="black"/>
</svg>
