<svg width="30" height="30" viewBox="0 0 30 30" fill="none" xmlns="http://www.w3.org/2000/svg">
<path d="M15.0007 7.5C12.741 7.5 10.9096 9.25174 10.9096 11.413V12.0652C10.9096 14.2266 12.741 15.9783 15.0007 15.9783C17.2603 15.9783 19.0917 14.2266 19.0917 12.0652V11.413C19.0917 9.25174 17.2603 7.5 15.0007 7.5ZM14.9993 17.9347C12.2678 17.9347 8.76314 19.3479 7.75468 20.602C7.13147 21.3775 7.72474 22.5 8.74683 22.5H21.2532C22.2753 22.5 22.8685 21.3775 22.2453 20.602C21.2369 19.3486 17.7308 17.9347 14.9993 17.9347Z" 
fill="black"/>
<path d="M26.5 15C26.5 21.3513 21.3513 26.5 15 26.5C8.64873 26.5 3.5 21.3513 3.5 15C3.5 8.64873 8.64873 3.5 15 3.5C21.3513 3.5 26.5 8.64873 26.5 15Z" 
stroke="black" stroke-width="2"/>
</svg>
